<?xml version="1.0" encoding="us-ascii" standalone="no"?><svg xmlns="http://www.w3.org/2000/svg" xmlns:xlink="http://www.w3.org/1999/xlink" contentStyleType="text/css" height="2057px" preserveAspectRatio="none" style="width:3349px;height:2057px;background:#FFFFFF;" version="1.1" viewBox="0 0 3349 2057" width="3349px" zoomAndPan="magnify"><defs/><g><rect fill="none" height="22.6406" style="stroke:none;stroke-width:1.0;" width="3316.5" x="15" y="12.4551"/><ellipse cx="185" cy="50.0957" fill="#222222" rx="10" ry="10" style="stroke:#222222;stroke-width:1.0;"/><line style="stroke:#181818;stroke-width:1.5;" x1="93" x2="271" y1="80.0957" y2="80.0957"/><rect fill="#F1F1F1" height="35.0938" rx="12.5" ry="12.5" style="stroke:#181818;stroke-width:0.5;" width="144" x="21" y="100.0957"/><text fill="#000000" font-family="sans-serif" font-size="12" lengthAdjust="spacing" textLength="124" x="31" y="122.5527">Enter Your Credentials</text><rect fill="#F1F1F1" height="35.0938" rx="12.5" ry="12.5" style="stroke:#181818;stroke-width:0.5;" width="181" x="180.5" y="100.0957"/><text fill="#000000" font-family="sans-serif" font-size="12" lengthAdjust="spacing" textLength="161" x="190.5" y="122.5527">Not Registered, sign up here!</text><line style="stroke:#181818;stroke-width:1.5;" x1="93" x2="271" y1="155.1895" y2="155.1895"/><line style="stroke:#000000;stroke-width:1.5;" x1="15" x2="15" y1="12.4551" y2="2045.6426"/><ellipse cx="889.75" cy="185.1895" fill="#222222" rx="10" ry="10" style="stroke:#222222;stroke-width:1.0;"/><polygon fill="#F1F1F1" points="803.75,215.1895,975.75,215.1895,987.75,227.1895,975.75,239.1895,803.75,239.1895,791.75,227.1895,803.75,215.1895" style="stroke:#181818;stroke-width:0.5;"/><text fill="#000000" font-family="sans-serif" font-size="11" lengthAdjust="spacing" textLength="172" x="803.75" y="231.6904">Checking if Signing in or Registering</text><text fill="#000000" font-family="sans-serif" font-size="11" lengthAdjust="spacing" textLength="32" x="759.75" y="224.7725">Sign in</text><text fill="#000000" font-family="sans-serif" font-size="11" lengthAdjust="spacing" textLength="40" x="987.75" y="224.7725">Register</text><rect fill="#F1F1F1" height="35.0938" rx="12.5" ry="12.5" style="stroke:#181818;stroke-width:0.5;" width="95" x="543" y="259.1895"/><text fill="#000000" font-family="sans-serif" font-size="12" lengthAdjust="spacing" textLength="75" x="553" y="281.6465">HandleSignIn</text><rect fill="#555555" height="6" rx="2.5" ry="2.5" style="stroke:#555555;stroke-width:1.0;" width="454" x="371.5" y="314.2832"/><line style="stroke:#181818;stroke-width:1.5;" x1="480.5" x2="701.5" y1="340.2832" y2="340.2832"/><rect fill="#F1F1F1" height="35.0938" rx="12.5" ry="12.5" style="stroke:#181818;stroke-width:0.5;" width="194" x="383.5" y="360.2832"/><text fill="#000000" font-family="sans-serif" font-size="12" lengthAdjust="spacing" textLength="174" x="393.5" y="382.7402">Get username from SignInPage</text><rect fill="#F1F1F1" height="35.0938" rx="12.5" ry="12.5" style="stroke:#181818;stroke-width:0.5;" width="192" x="605.5" y="360.2832"/><text fill="#000000" font-family="sans-serif" font-size="12" lengthAdjust="spacing" textLength="172" x="615.5" y="382.7402">Get password from SignInPage</text><line style="stroke:#181818;stroke-width:1.5;" x1="480.5" x2="701.5" y1="415.377" y2="415.377"/><rect fill="#555555" height="6" rx="2.5" ry="2.5" style="stroke:#555555;stroke-width:1.0;" width="454" x="371.5" y="435.377"/><rect fill="#F1F1F1" height="35.0938" rx="12.5" ry="12.5" style="stroke:#181818;stroke-width:0.5;" width="131" x="525" y="538.2129"/><text fill="#000000" font-family="sans-serif" font-size="12" lengthAdjust="spacing" textLength="111" x="535" y="560.6699">Incorrect credentials</text><polygon fill="#F1F1F1" points="547.5,476.377,633.5,476.377,645.5,488.377,633.5,500.377,547.5,500.377,535.5,488.377,547.5,476.377" style="stroke:#181818;stroke-width:0.5;"/><text fill="#000000" font-family="sans-serif" font-size="11" lengthAdjust="spacing" textLength="30" x="594.5" y="511.7959">Invalid</text><text fill="#000000" font-family="sans-serif" font-size="11" lengthAdjust="spacing" textLength="86" x="547.5" y="492.8779">Verify credentials</text><text fill="#000000" font-family="sans-serif" font-size="11" lengthAdjust="spacing" textLength="24" x="511.5" y="485.96">Valid</text><rect fill="#F1F1F1" height="35.0938" rx="12.5" ry="12.5" style="stroke:#181818;stroke-width:0.5;" width="170" x="505.5" y="630.3066"/><text fill="#000000" font-family="sans-serif" font-size="12" lengthAdjust="spacing" textLength="150" x="515.5" y="652.7637">Welcome to QuackStagram</text><ellipse cx="590.5" cy="710.4004" fill="none" rx="10" ry="10" style="stroke:#222222;stroke-width:1.5;"/><line style="stroke:#222222;stroke-width:2.5;" x1="584.3128" x2="596.6872" y1="704.2132" y2="716.5876"/><line style="stroke:#222222;stroke-width:2.5;" x1="596.6872" x2="584.3128" y1="704.2132" y2="716.5876"/><rect fill="#F1F1F1" height="35.0938" rx="12.5" ry="12.5" style="stroke:#181818;stroke-width:0.5;" width="169" x="1037.75" y="259.1895"/><text fill="#000000" font-family="sans-serif" font-size="12" lengthAdjust="spacing" textLength="149" x="1047.75" y="281.6465">Redirecting to SignUpPage</text><line style="stroke:#000000;stroke-width:1.5;" x1="365.5" x2="365.5" y1="12.4551" y2="2045.6426"/><ellipse cx="1360.75" cy="324.2832" fill="#222222" rx="10" ry="10" style="stroke:#222222;stroke-width:1.0;"/><rect fill="#F1F1F1" height="35.0938" rx="12.5" ry="12.5" style="stroke:#181818;stroke-width:0.5;" width="147" x="1287.25" y="367.7832"/><text fill="#000000" font-family="sans-serif" font-size="12" lengthAdjust="spacing" textLength="127" x="1297.25" y="390.2402">Upload a profile picture</text><rect fill="#555555" height="6" rx="2.5" ry="2.5" style="stroke:#555555;stroke-width:1.0;" width="288" x="1216.75" y="436.377"/><line style="stroke:#181818;stroke-width:1.5;" x1="1288.25" x2="1434.25" y1="462.377" y2="462.377"/><rect fill="#F1F1F1" height="35.0938" rx="12.5" ry="12.5" style="stroke:#181818;stroke-width:0.5;" width="119" x="1228.75" y="483.877"/><text fill="#000000" font-family="sans-serif" font-size="12" lengthAdjust="spacing" textLength="99" x="1238.75" y="506.334">Enter a username</text><rect fill="#F1F1F1" height="35.0938" rx="12.5" ry="12.5" style="stroke:#181818;stroke-width:0.5;" width="117" x="1375.75" y="483.877"/><text fill="#000000" font-family="sans-serif" font-size="12" lengthAdjust="spacing" textLength="97" x="1385.75" y="506.334">Enter a password</text><line style="stroke:#181818;stroke-width:1.5;" x1="1288.25" x2="1434.25" y1="538.9707" y2="538.9707"/><rect fill="#555555" height="6" rx="2.5" ry="2.5" style="stroke:#555555;stroke-width:1.0;" width="288" x="1216.75" y="560.4707"/><rect fill="#F1F1F1" height="35.0938" rx="12.5" ry="12.5" style="stroke:#181818;stroke-width:0.5;" width="87" x="1317.25" y="599.4707"/><text fill="#000000" font-family="sans-serif" font-size="12" lengthAdjust="spacing" textLength="67" x="1327.25" y="621.9277">Create a bio</text><line style="stroke:#000000;stroke-width:1.5;" x1="1210.75" x2="1210.75" y1="12.4551" y2="2045.6426"/><ellipse cx="1821.25" cy="679.5645" fill="#222222" rx="10" ry="10" style="stroke:#222222;stroke-width:1.0;"/><rect fill="#F1F1F1" height="35.0938" rx="12.5" ry="12.5" style="stroke:#181818;stroke-width:0.5;" width="131" x="1755.75" y="724.5645"/><text fill="#000000" font-family="sans-serif" font-size="12" lengthAdjust="spacing" textLength="111" x="1765.75" y="747.0215">handleProfilePicture</text><rect fill="#F1F1F1" height="35.0938" rx="12.5" ry="12.5" style="stroke:#181818;stroke-width:0.5;" width="137" x="1752.75" y="779.6582"/><text fill="#000000" font-family="sans-serif" font-size="12" lengthAdjust="spacing" textLength="117" x="1762.75" y="802.1152">Upload profile picture</text><rect fill="#F1F1F1" height="35.0938" rx="12.5" ry="12.5" style="stroke:#181818;stroke-width:0.5;" width="105" x="1768.75" y="834.752"/><text fill="#000000" font-family="sans-serif" font-size="12" lengthAdjust="spacing" textLength="85" x="1778.75" y="857.209">handleRegister</text><rect fill="#555555" height="6" rx="2.5" ry="2.5" style="stroke:#555555;stroke-width:1.0;" width="613.75" x="1514.75" y="889.8457"/><line style="stroke:#181818;stroke-width:1.5;" x1="1628.25" x2="2036" y1="915.8457" y2="915.8457"/><rect fill="#F1F1F1" height="35.0938" rx="12.5" ry="12.5" style="stroke:#181818;stroke-width:0.5;" width="202" x="1527.25" y="935.8457"/><text fill="#000000" font-family="sans-serif" font-size="12" lengthAdjust="spacing" textLength="182" x="1537.25" y="958.3027">Get Username from SignUpPage</text><rect fill="#F1F1F1" height="35.0938" rx="12.5" ry="12.5" style="stroke:#181818;stroke-width:0.5;" width="171" x="1542.75" y="1052.7754"/><text fill="#000000" font-family="sans-serif" font-size="12" lengthAdjust="spacing" textLength="151" x="1552.75" y="1075.2324">Username is already taken!</text><polygon fill="#F1F1F1" points="1584.25,990.9395,1672.25,990.9395,1684.25,1002.9395,1672.25,1014.9395,1584.25,1014.9395,1572.25,1002.9395,1584.25,990.9395" style="stroke:#181818;stroke-width:0.5;"/><text fill="#000000" font-family="sans-serif" font-size="11" lengthAdjust="spacing" textLength="20" x="1632.25" y="1026.3584">Yes</text><text fill="#000000" font-family="sans-serif" font-size="11" lengthAdjust="spacing" textLength="88" x="1584.25" y="1007.4404">Username invalid?</text><text fill="#000000" font-family="sans-serif" font-size="11" lengthAdjust="spacing" textLength="13" x="1559.25" y="1000.5225">No</text><rect fill="#F1F1F1" height="35.0938" rx="12.5" ry="12.5" style="stroke:#181818;stroke-width:0.5;" width="199" x="1746.5" y="998.8105"/><text fill="#000000" font-family="sans-serif" font-size="12" lengthAdjust="spacing" textLength="179" x="1756.5" y="1021.2676">Get Password from SignUpPage</text><rect fill="#F1F1F1" height="35.0938" rx="12.5" ry="12.5" style="stroke:#181818;stroke-width:0.5;" width="161" x="1955.5" y="998.8105"/><text fill="#000000" font-family="sans-serif" font-size="12" lengthAdjust="spacing" textLength="141" x="1965.5" y="1021.2676">Get Bio from SignUpPage</text><line style="stroke:#181818;stroke-width:1.5;" x1="1628.25" x2="2036" y1="1129.8691" y2="1129.8691"/><rect fill="#555555" height="6" rx="2.5" ry="2.5" style="stroke:#555555;stroke-width:1.0;" width="613.75" x="1514.75" y="1149.8691"/><rect fill="#F1F1F1" height="35.0938" rx="12.5" ry="12.5" style="stroke:#181818;stroke-width:0.5;" width="93" x="1774.75" y="1175.8691"/><text fill="#000000" font-family="sans-serif" font-size="12" lengthAdjust="spacing" textLength="73" x="1784.75" y="1198.3262">handleSignIn</text><rect fill="#F1F1F1" height="35.0938" rx="12.5" ry="12.5" style="stroke:#181818;stroke-width:0.5;" width="163" x="1739.75" y="1230.9629"/><text fill="#000000" font-family="sans-serif" font-size="12" lengthAdjust="spacing" textLength="143" x="1749.75" y="1253.4199">Redirecting to SignInPage</text><ellipse cx="1821.25" cy="1297.0566" fill="none" rx="11" ry="11" style="stroke:#222222;stroke-width:1.0;"/><ellipse cx="1821.25" cy="1297.0566" fill="#222222" rx="6" ry="6" style="stroke:#222222;stroke-width:1.0;"/><line style="stroke:#000000;stroke-width:1.5;" x1="1508.75" x2="1508.75" y1="12.4551" y2="2045.6426"/><ellipse cx="2469" cy="1328.0566" fill="#222222" rx="10" ry="10" style="stroke:#222222;stroke-width:1.0;"/><rect fill="#F1F1F1" height="35.0938" rx="12.5" ry="12.5" style="stroke:#181818;stroke-width:0.5;" width="58" x="2440" y="1358.0566"/><text fill="#000000" font-family="sans-serif" font-size="12" lengthAdjust="spacing" textLength="38" x="2450" y="1380.5137">Sign in</text><line style="stroke:#181818;stroke-width:1.5;" x1="2317.5" x2="2590" y1="1413.1504" y2="1413.1504"/><rect fill="#F1F1F1" height="35.0938" rx="12.5" ry="12.5" style="stroke:#181818;stroke-width:0.5;" width="54" x="2290.5" y="1523.291"/><text fill="#000000" font-family="sans-serif" font-size="12" lengthAdjust="spacing" textLength="34" x="2300.5" y="1545.748">Log in</text><rect fill="#F1F1F1" height="35.0938" rx="12.5" ry="12.5" style="stroke:#181818;stroke-width:0.5;" width="308" x="2163.5" y="1655.2207"/><text fill="#000000" font-family="sans-serif" font-size="12" lengthAdjust="spacing" textLength="288" x="2173.5" y="1677.6777">Username or password is incorrect! Please try again</text><polygon fill="#F1F1F1" points="2264.5,1593.3848,2370.5,1593.3848,2382.5,1605.3848,2370.5,1617.3848,2264.5,1617.3848,2252.5,1605.3848,2264.5,1593.3848" style="stroke:#181818;stroke-width:0.5;"/><text fill="#000000" font-family="sans-serif" font-size="11" lengthAdjust="spacing" textLength="43" x="2321.5" y="1628.8037">Incorrect</text><text fill="#000000" font-family="sans-serif" font-size="11" lengthAdjust="spacing" textLength="106" x="2264.5" y="1609.8857">Enter your credentials</text><text fill="#000000" font-family="sans-serif" font-size="11" lengthAdjust="spacing" textLength="36" x="2216.5" y="1602.9678">Correct</text><rect fill="#F1F1F1" height="35.0938" rx="12.5" ry="12.5" style="stroke:#181818;stroke-width:0.5;" width="164" x="2508" y="1433.1504"/><text fill="#000000" font-family="sans-serif" font-size="12" lengthAdjust="spacing" textLength="144" x="2518" y="1455.6074">Not a user? Register Here</text><line style="stroke:#000000;stroke-width:1.5;" x1="2132.5" x2="2132.5" y1="12.4551" y2="2045.6426"/><rect fill="#F1F1F1" height="35.0938" rx="12.5" ry="12.5" style="stroke:#181818;stroke-width:0.5;" width="251" x="2711" y="1550.0801"/><text fill="#000000" font-family="sans-serif" font-size="12" lengthAdjust="spacing" textLength="231" x="2721" y="1572.5371">Username is taken, try another username!</text><polygon fill="#F1F1F1" points="2793.5,1488.2441,2879.5,1488.2441,2891.5,1500.2441,2879.5,1512.2441,2793.5,1512.2441,2781.5,1500.2441,2793.5,1488.2441" style="stroke:#181818;stroke-width:0.5;"/><text fill="#000000" font-family="sans-serif" font-size="11" lengthAdjust="spacing" textLength="29" x="2840.5" y="1523.6631">Taken</text><text fill="#000000" font-family="sans-serif" font-size="11" lengthAdjust="spacing" textLength="86" x="2793.5" y="1504.7451">Enter a Username</text><text fill="#000000" font-family="sans-serif" font-size="11" lengthAdjust="spacing" textLength="45" x="2736.5" y="1497.8271">Not taken</text><rect fill="#F1F1F1" height="35.0938" rx="12.5" ry="12.5" style="stroke:#181818;stroke-width:0.5;" width="117" x="2778" y="1644.1738"/><text fill="#000000" font-family="sans-serif" font-size="12" lengthAdjust="spacing" textLength="97" x="2788" y="1666.6309">Enter a password</text><rect fill="#F1F1F1" height="35.0938" rx="12.5" ry="12.5" style="stroke:#181818;stroke-width:0.5;" width="148" x="2762.5" y="1712.2676"/><text fill="#000000" font-family="sans-serif" font-size="12" lengthAdjust="spacing" textLength="128" x="2772.5" y="1734.7246">Upload a profile Picture</text><rect fill="#F1F1F1" height="35.0938" rx="12.5" ry="12.5" style="stroke:#181818;stroke-width:0.5;" width="87" x="2793" y="1767.3613"/><text fill="#000000" font-family="sans-serif" font-size="12" lengthAdjust="spacing" textLength="67" x="2803" y="1789.8184">Create a bio</text><line style="stroke:#181818;stroke-width:1.5;" x1="2681" x2="2836.5" y1="1822.4551" y2="1822.4551"/><line style="stroke:#000000;stroke-width:1.5;" x1="2676" x2="2676" y1="12.4551" y2="2045.6426"/><rect fill="#F1F1F1" height="35.0938" rx="12.5" ry="12.5" style="stroke:#181818;stroke-width:0.5;" width="172" x="3083" y="1842.4551"/><text fill="#000000" font-family="sans-serif" font-size="12" lengthAdjust="spacing" textLength="152" x="3093" y="1864.9121">Welcome to Quackstagram!</text><line style="stroke:#181818;stroke-width:1.5;" x1="3057.5" x2="3295.5" y1="1897.5488" y2="1897.5488"/><rect fill="#F1F1F1" height="35.0938" rx="12.5" ry="12.5" style="stroke:#181818;stroke-width:0.5;" width="117" x="2999" y="1946.0488"/><text fill="#000000" font-family="sans-serif" font-size="12" lengthAdjust="spacing" textLength="97" x="3009" y="1968.5059">Upload a picture?</text><rect fill="#F1F1F1" height="35.0938" rx="12.5" ry="12.5" style="stroke:#181818;stroke-width:0.5;" width="106" x="3144" y="1946.0488"/><text fill="#000000" font-family="sans-serif" font-size="12" lengthAdjust="spacing" textLength="86" x="3154" y="1968.5059">Visit your profile</text><rect fill="#F1F1F1" height="35.0938" rx="12.5" ry="12.5" style="stroke:#181818;stroke-width:0.5;" width="61" x="3265" y="1917.5488"/><text fill="#000000" font-family="sans-serif" font-size="12" lengthAdjust="spacing" textLength="41" x="3275" y="1940.0059">Log out</text><ellipse cx="3295.5" cy="1998.6426" fill="none" rx="11" ry="11" style="stroke:#222222;stroke-width:1.0;"/><ellipse cx="3295.5" cy="1998.6426" fill="#222222" rx="6" ry="6" style="stroke:#222222;stroke-width:1.0;"/><line style="stroke:#000000;stroke-width:1.5;" x1="2993" x2="2993" y1="12.4551" y2="2045.6426"/><line style="stroke:#000000;stroke-width:1.5;" x1="3330" x2="3330" y1="12.4551" y2="2045.6426"/><line style="stroke:#181818;stroke-width:1.0;" x1="93" x2="93" y1="81.5957" y2="100.0957"/><polygon fill="#181818" points="89,90.0957,93,100.0957,97,90.0957,93,94.0957" style="stroke:#181818;stroke-width:1.0;"/><line style="stroke:#181818;stroke-width:1.0;" x1="271" x2="271" y1="81.5957" y2="100.0957"/><polygon fill="#181818" points="267,90.0957,271,100.0957,275,90.0957,271,94.0957" style="stroke:#181818;stroke-width:1.0;"/><line style="stroke:#181818;stroke-width:1.0;" x1="93" x2="93" y1="135.1895" y2="155.1895"/><polygon fill="#181818" points="89,145.1895,93,155.1895,97,145.1895,93,149.1895" style="stroke:#181818;stroke-width:1.0;"/><line style="stroke:#181818;stroke-width:1.0;" x1="271" x2="271" y1="135.1895" y2="155.1895"/><polygon fill="#181818" points="267,145.1895,271,155.1895,275,145.1895,271,149.1895" style="stroke:#181818;stroke-width:1.0;"/><line style="stroke:#181818;stroke-width:1.0;" x1="185" x2="185" y1="60.0957" y2="80.0957"/><polygon fill="#181818" points="181,70.0957,185,80.0957,189,70.0957,185,74.0957" style="stroke:#181818;stroke-width:1.0;"/><line style="stroke:#181818;stroke-width:1.0;" x1="480.5" x2="480.5" y1="341.7832" y2="360.2832"/><polygon fill="#181818" points="476.5,350.2832,480.5,360.2832,484.5,350.2832,480.5,354.2832" style="stroke:#181818;stroke-width:1.0;"/><line style="stroke:#181818;stroke-width:1.0;" x1="701.5" x2="701.5" y1="341.7832" y2="360.2832"/><polygon fill="#181818" points="697.5,350.2832,701.5,360.2832,705.5,350.2832,701.5,354.2832" style="stroke:#181818;stroke-width:1.0;"/><line style="stroke:#181818;stroke-width:1.0;" x1="480.5" x2="480.5" y1="395.377" y2="415.377"/><polygon fill="#181818" points="476.5,405.377,480.5,415.377,484.5,405.377,480.5,409.377" style="stroke:#181818;stroke-width:1.0;"/><line style="stroke:#181818;stroke-width:1.0;" x1="701.5" x2="701.5" y1="395.377" y2="415.377"/><polygon fill="#181818" points="697.5,405.377,701.5,415.377,705.5,405.377,701.5,409.377" style="stroke:#181818;stroke-width:1.0;"/><line style="stroke:#181818;stroke-width:1.0;" x1="590.5" x2="590.5" y1="320.2832" y2="340.2832"/><polygon fill="#181818" points="586.5,330.2832,590.5,340.2832,594.5,330.2832,590.5,334.2832" style="stroke:#181818;stroke-width:1.0;"/><line style="stroke:#181818;stroke-width:1.0;" x1="590.5" x2="590.5" y1="416.877" y2="435.377"/><polygon fill="#181818" points="586.5,425.377,590.5,435.377,594.5,425.377,590.5,429.377" style="stroke:#181818;stroke-width:1.0;"/><line style="stroke:#181818;stroke-width:1.0;" x1="590.5" x2="590.5" y1="294.2832" y2="314.2832"/><polygon fill="#181818" points="586.5,304.2832,590.5,314.2832,594.5,304.2832,590.5,308.2832" style="stroke:#181818;stroke-width:1.0;"/><line style="stroke:#181818;stroke-width:1.0;" x1="590.5" x2="590.5" y1="500.377" y2="538.2129"/><polygon fill="#181818" points="586.5,528.2129,590.5,538.2129,594.5,528.2129,590.5,532.2129" style="stroke:#181818;stroke-width:1.0;"/><line style="stroke:#181818;stroke-width:1.0;" x1="590.5" x2="590.5" y1="573.3066" y2="583.3066"/><line style="stroke:#181818;stroke-width:1.0;" x1="590.5" x2="668" y1="583.3066" y2="583.3066"/><polygon fill="#181818" points="664,546.8418,668,536.8418,672,546.8418,668,542.8418" style="stroke:#181818;stroke-width:1.0;"/><line style="stroke:#181818;stroke-width:1.0;" x1="668" x2="668" y1="488.377" y2="583.3066"/><line style="stroke:#181818;stroke-width:1.0;" x1="668" x2="645.5" y1="488.377" y2="488.377"/><polygon fill="#181818" points="655.5,484.377,645.5,488.377,655.5,492.377,651.5,488.377" style="stroke:#181818;stroke-width:1.0;"/><line style="stroke:#181818;stroke-width:1.0;" x1="535.5" x2="513" y1="488.377" y2="488.377"/><polygon fill="#181818" points="509,532.8418,513,542.8418,517,532.8418,513,536.8418" style="stroke:#181818;stroke-width:1.0;"/><line style="stroke:#181818;stroke-width:1.0;" x1="513" x2="513" y1="488.377" y2="595.3066"/><line style="stroke:#181818;stroke-width:1.0;" x1="513" x2="590.5" y1="595.3066" y2="595.3066"/><line style="stroke:#181818;stroke-width:1.0;" x1="590.5" x2="590.5" y1="595.3066" y2="630.3066"/><polygon fill="#181818" points="586.5,620.3066,590.5,630.3066,594.5,620.3066,590.5,624.3066" style="stroke:#181818;stroke-width:1.0;"/><line style="stroke:#181818;stroke-width:1.0;" x1="590.5" x2="590.5" y1="441.377" y2="476.377"/><polygon fill="#181818" points="586.5,466.377,590.5,476.377,594.5,466.377,590.5,470.377" style="stroke:#181818;stroke-width:1.0;"/><line style="stroke:#181818;stroke-width:1.0;" x1="590.5" x2="590.5" y1="665.4004" y2="700.4004"/><polygon fill="#181818" points="586.5,690.4004,590.5,700.4004,594.5,690.4004,590.5,694.4004" style="stroke:#181818;stroke-width:1.0;"/><line style="stroke:#181818;stroke-width:1.0;" x1="791.75" x2="590.5" y1="227.1895" y2="227.1895"/><line style="stroke:#181818;stroke-width:1.0;" x1="590.5" x2="590.5" y1="227.1895" y2="259.1895"/><polygon fill="#181818" points="586.5,249.1895,590.5,259.1895,594.5,249.1895,590.5,253.1895" style="stroke:#181818;stroke-width:1.0;"/><line style="stroke:#181818;stroke-width:1.0;" x1="987.75" x2="1122.25" y1="227.1895" y2="227.1895"/><line style="stroke:#181818;stroke-width:1.0;" x1="1122.25" x2="1122.25" y1="227.1895" y2="259.1895"/><polygon fill="#181818" points="1118.25,249.1895,1122.25,259.1895,1126.25,249.1895,1122.25,253.1895" style="stroke:#181818;stroke-width:1.0;"/><line style="stroke:#181818;stroke-width:1.0;" x1="889.75" x2="889.75" y1="195.1895" y2="215.1895"/><polygon fill="#181818" points="885.75,205.1895,889.75,215.1895,893.75,205.1895,889.75,209.1895" style="stroke:#181818;stroke-width:1.0;"/><line style="stroke:#181818;stroke-width:1.0;" x1="1360.75" x2="1360.75" y1="334.2832" y2="367.7832"/><polygon fill="#181818" points="1356.75,357.7832,1360.75,367.7832,1364.75,357.7832,1360.75,361.7832" style="stroke:#181818;stroke-width:1.0;"/><line style="stroke:#181818;stroke-width:1.0;" x1="1288.25" x2="1288.25" y1="463.877" y2="483.877"/><polygon fill="#181818" points="1284.25,473.877,1288.25,483.877,1292.25,473.877,1288.25,477.877" style="stroke:#181818;stroke-width:1.0;"/><line style="stroke:#181818;stroke-width:1.0;" x1="1434.25" x2="1434.25" y1="463.877" y2="483.877"/><polygon fill="#181818" points="1430.25,473.877,1434.25,483.877,1438.25,473.877,1434.25,477.877" style="stroke:#181818;stroke-width:1.0;"/><line style="stroke:#181818;stroke-width:1.0;" x1="1288.25" x2="1288.25" y1="518.9707" y2="538.9707"/><polygon fill="#181818" points="1284.25,528.9707,1288.25,538.9707,1292.25,528.9707,1288.25,532.9707" style="stroke:#181818;stroke-width:1.0;"/><line style="stroke:#181818;stroke-width:1.0;" x1="1434.25" x2="1434.25" y1="518.9707" y2="538.9707"/><polygon fill="#181818" points="1430.25,528.9707,1434.25,538.9707,1438.25,528.9707,1434.25,532.9707" style="stroke:#181818;stroke-width:1.0;"/><line style="stroke:#181818;stroke-width:1.0;" x1="1360.75" x2="1360.75" y1="442.377" y2="462.377"/><polygon fill="#181818" points="1356.75,452.377,1360.75,462.377,1364.75,452.377,1360.75,456.377" style="stroke:#181818;stroke-width:1.0;"/><line style="stroke:#181818;stroke-width:1.0;" x1="1360.75" x2="1360.75" y1="540.4707" y2="560.4707"/><polygon fill="#181818" points="1356.75,550.4707,1360.75,560.4707,1364.75,550.4707,1360.75,554.4707" style="stroke:#181818;stroke-width:1.0;"/><line style="stroke:#181818;stroke-width:1.0;" x1="1360.75" x2="1360.75" y1="402.877" y2="436.377"/><polygon fill="#181818" points="1356.75,426.377,1360.75,436.377,1364.75,426.377,1360.75,430.377" style="stroke:#181818;stroke-width:1.0;"/><line style="stroke:#181818;stroke-width:1.0;" x1="1360.75" x2="1360.75" y1="566.4707" y2="599.4707"/><polygon fill="#181818" points="1356.75,589.4707,1360.75,599.4707,1364.75,589.4707,1360.75,593.4707" style="stroke:#181818;stroke-width:1.0;"/><line style="stroke:#181818;stroke-width:1.0;" x1="1821.25" x2="1821.25" y1="689.5645" y2="724.5645"/><polygon fill="#181818" points="1817.25,714.5645,1821.25,724.5645,1825.25,714.5645,1821.25,718.5645" style="stroke:#181818;stroke-width:1.0;"/><line style="stroke:#181818;stroke-width:1.0;" x1="1821.25" x2="1821.25" y1="759.6582" y2="779.6582"/><polygon fill="#181818" points="1817.25,769.6582,1821.25,779.6582,1825.25,769.6582,1821.25,773.6582" style="stroke:#181818;stroke-width:1.0;"/><line style="stroke:#181818;stroke-width:1.0;" x1="1821.25" x2="1821.25" y1="814.752" y2="834.752"/><polygon fill="#181818" points="1817.25,824.752,1821.25,834.752,1825.25,824.752,1821.25,828.752" style="stroke:#181818;stroke-width:1.0;"/><line style="stroke:#181818;stroke-width:1.0;" x1="1628.25" x2="1628.25" y1="1014.9395" y2="1052.7754"/><polygon fill="#181818" points="1624.25,1042.7754,1628.25,1052.7754,1632.25,1042.7754,1628.25,1046.7754" style="stroke:#181818;stroke-width:1.0;"/><line style="stroke:#181818;stroke-width:1.0;" x1="1628.25" x2="1628.25" y1="1087.8691" y2="1097.8691"/><line style="stroke:#181818;stroke-width:1.0;" x1="1628.25" x2="1725.75" y1="1097.8691" y2="1097.8691"/><polygon fill="#181818" points="1721.75,1061.4043,1725.75,1051.4043,1729.75,1061.4043,1725.75,1057.4043" style="stroke:#181818;stroke-width:1.0;"/><line style="stroke:#181818;stroke-width:1.0;" x1="1725.75" x2="1725.75" y1="1002.9395" y2="1097.8691"/><line style="stroke:#181818;stroke-width:1.0;" x1="1725.75" x2="1684.25" y1="1002.9395" y2="1002.9395"/><polygon fill="#181818" points="1694.25,998.9395,1684.25,1002.9395,1694.25,1006.9395,1690.25,1002.9395" style="stroke:#181818;stroke-width:1.0;"/><line style="stroke:#181818;stroke-width:1.0;" x1="1572.25" x2="1530.75" y1="1002.9395" y2="1002.9395"/><polygon fill="#181818" points="1526.75,1047.4043,1530.75,1057.4043,1534.75,1047.4043,1530.75,1051.4043" style="stroke:#181818;stroke-width:1.0;"/><line style="stroke:#181818;stroke-width:1.0;" x1="1530.75" x2="1530.75" y1="1002.9395" y2="1109.8691"/><line style="stroke:#181818;stroke-width:1.0;" x1="1530.75" x2="1628.25" y1="1109.8691" y2="1109.8691"/><line style="stroke:#181818;stroke-width:1.0;" x1="1628.25" x2="1628.25" y1="1109.8691" y2="1129.8691"/><polygon fill="#181818" points="1624.25,1119.8691,1628.25,1129.8691,1632.25,1119.8691,1628.25,1123.8691" style="stroke:#181818;stroke-width:1.0;"/><line style="stroke:#181818;stroke-width:1.0;" x1="1628.25" x2="1628.25" y1="970.9395" y2="990.9395"/><polygon fill="#181818" points="1624.25,980.9395,1628.25,990.9395,1632.25,980.9395,1628.25,984.9395" style="stroke:#181818;stroke-width:1.0;"/><line style="stroke:#181818;stroke-width:1.0;" x1="1628.25" x2="1628.25" y1="917.3457" y2="935.8457"/><polygon fill="#181818" points="1624.25,925.8457,1628.25,935.8457,1632.25,925.8457,1628.25,929.8457" style="stroke:#181818;stroke-width:1.0;"/><line style="stroke:#181818;stroke-width:1.0;" x1="1846" x2="1846" y1="917.3457" y2="998.8105"/><polygon fill="#181818" points="1842,988.8105,1846,998.8105,1850,988.8105,1846,992.8105" style="stroke:#181818;stroke-width:1.0;"/><line style="stroke:#181818;stroke-width:1.0;" x1="2036" x2="2036" y1="917.3457" y2="998.8105"/><polygon fill="#181818" points="2032,988.8105,2036,998.8105,2040,988.8105,2036,992.8105" style="stroke:#181818;stroke-width:1.0;"/><line style="stroke:#181818;stroke-width:1.0;" x1="1846" x2="1846" y1="1033.9043" y2="1129.8691"/><polygon fill="#181818" points="1842,1119.8691,1846,1129.8691,1850,1119.8691,1846,1123.8691" style="stroke:#181818;stroke-width:1.0;"/><line style="stroke:#181818;stroke-width:1.0;" x1="2036" x2="2036" y1="1033.9043" y2="1129.8691"/><polygon fill="#181818" points="2032,1119.8691,2036,1129.8691,2040,1119.8691,2036,1123.8691" style="stroke:#181818;stroke-width:1.0;"/><line style="stroke:#181818;stroke-width:1.0;" x1="1821.25" x2="1821.25" y1="895.8457" y2="915.8457"/><polygon fill="#181818" points="1817.25,905.8457,1821.25,915.8457,1825.25,905.8457,1821.25,909.8457" style="stroke:#181818;stroke-width:1.0;"/><line style="stroke:#181818;stroke-width:1.0;" x1="1821.25" x2="1821.25" y1="1131.3691" y2="1149.8691"/><polygon fill="#181818" points="1817.25,1139.8691,1821.25,1149.8691,1825.25,1139.8691,1821.25,1143.8691" style="stroke:#181818;stroke-width:1.0;"/><line style="stroke:#181818;stroke-width:1.0;" x1="1821.25" x2="1821.25" y1="869.8457" y2="889.8457"/><polygon fill="#181818" points="1817.25,879.8457,1821.25,889.8457,1825.25,879.8457,1821.25,883.8457" style="stroke:#181818;stroke-width:1.0;"/><line style="stroke:#181818;stroke-width:1.0;" x1="1821.25" x2="1821.25" y1="1155.8691" y2="1175.8691"/><polygon fill="#181818" points="1817.25,1165.8691,1821.25,1175.8691,1825.25,1165.8691,1821.25,1169.8691" style="stroke:#181818;stroke-width:1.0;"/><line style="stroke:#181818;stroke-width:1.0;" x1="1821.25" x2="1821.25" y1="1210.9629" y2="1230.9629"/><polygon fill="#181818" points="1817.25,1220.9629,1821.25,1230.9629,1825.25,1220.9629,1821.25,1224.9629" style="stroke:#181818;stroke-width:1.0;"/><line style="stroke:#181818;stroke-width:1.0;" x1="1821.25" x2="1821.25" y1="1266.0566" y2="1286.0566"/><polygon fill="#181818" points="1817.25,1276.0566,1821.25,1286.0566,1825.25,1276.0566,1821.25,1280.0566" style="stroke:#181818;stroke-width:1.0;"/><line style="stroke:#181818;stroke-width:1.0;" x1="2469" x2="2469" y1="1338.0566" y2="1358.0566"/><polygon fill="#181818" points="2465,1348.0566,2469,1358.0566,2473,1348.0566,2469,1352.0566" style="stroke:#181818;stroke-width:1.0;"/><line style="stroke:#181818;stroke-width:1.0;" x1="2317.5" x2="2317.5" y1="1617.3848" y2="1655.2207"/><polygon fill="#181818" points="2313.5,1645.2207,2317.5,1655.2207,2321.5,1645.2207,2317.5,1649.2207" style="stroke:#181818;stroke-width:1.0;"/><line style="stroke:#181818;stroke-width:1.0;" x1="2317.5" x2="2317.5" y1="1690.3145" y2="1700.3145"/><line style="stroke:#181818;stroke-width:1.0;" x1="2317.5" x2="2483.5" y1="1700.3145" y2="1700.3145"/><polygon fill="#181818" points="2479.5,1663.8496,2483.5,1653.8496,2487.5,1663.8496,2483.5,1659.8496" style="stroke:#181818;stroke-width:1.0;"/><line style="stroke:#181818;stroke-width:1.0;" x1="2483.5" x2="2483.5" y1="1605.3848" y2="1700.3145"/><line style="stroke:#181818;stroke-width:1.0;" x1="2483.5" x2="2382.5" y1="1605.3848" y2="1605.3848"/><polygon fill="#181818" points="2392.5,1601.3848,2382.5,1605.3848,2392.5,1609.3848,2388.5,1605.3848" style="stroke:#181818;stroke-width:1.0;"/><line style="stroke:#181818;stroke-width:1.0;" x1="2252.5" x2="2151.5" y1="1605.3848" y2="1605.3848"/><polygon fill="#181818" points="2147.5,1703.4199,2151.5,1713.4199,2155.5,1703.4199,2151.5,1707.4199" style="stroke:#181818;stroke-width:1.0;"/><line style="stroke:#181818;stroke-width:1.0;" x1="2151.5" x2="2151.5" y1="1605.3848" y2="1808.4551"/><line style="stroke:#181818;stroke-width:1.0;" x1="2151.5" x2="2681" y1="1808.4551" y2="1808.4551"/><line style="stroke:#181818;stroke-width:1.0;" x1="2681" x2="2681" y1="1808.4551" y2="1822.4551"/><polygon fill="#181818" points="2677,1812.4551,2681,1822.4551,2685,1812.4551,2681,1816.4551" style="stroke:#181818;stroke-width:1.0;"/><line style="stroke:#181818;stroke-width:1.0;" x1="2317.5" x2="2317.5" y1="1558.3848" y2="1593.3848"/><polygon fill="#181818" points="2313.5,1583.3848,2317.5,1593.3848,2321.5,1583.3848,2317.5,1587.3848" style="stroke:#181818;stroke-width:1.0;"/><line style="stroke:#181818;stroke-width:1.0;" x1="2317.5" x2="2317.5" y1="1414.6504" y2="1523.291"/><polygon fill="#181818" points="2313.5,1513.291,2317.5,1523.291,2321.5,1513.291,2317.5,1517.291" style="stroke:#181818;stroke-width:1.0;"/><line style="stroke:#181818;stroke-width:1.0;" x1="2590" x2="2590" y1="1414.6504" y2="1433.1504"/><polygon fill="#181818" points="2586,1423.1504,2590,1433.1504,2594,1423.1504,2590,1427.1504" style="stroke:#181818;stroke-width:1.0;"/><line style="stroke:#181818;stroke-width:1.0;" x1="2469" x2="2469" y1="1393.1504" y2="1413.1504"/><polygon fill="#181818" points="2465,1403.1504,2469,1413.1504,2473,1403.1504,2469,1407.1504" style="stroke:#181818;stroke-width:1.0;"/><line style="stroke:#181818;stroke-width:1.0;" x1="2836.5" x2="2836.5" y1="1512.2441" y2="1550.0801"/><polygon fill="#181818" points="2832.5,1540.0801,2836.5,1550.0801,2840.5,1540.0801,2836.5,1544.0801" style="stroke:#181818;stroke-width:1.0;"/><line style="stroke:#181818;stroke-width:1.0;" x1="2836.5" x2="2836.5" y1="1585.1738" y2="1597.1738"/><line style="stroke:#181818;stroke-width:1.0;" x1="2836.5" x2="2974" y1="1597.1738" y2="1597.1738"/><polygon fill="#181818" points="2970,1558.709,2974,1548.709,2978,1558.709,2974,1554.709" style="stroke:#181818;stroke-width:1.0;"/><line style="stroke:#181818;stroke-width:1.0;" x1="2974" x2="2974" y1="1500.2441" y2="1597.1738"/><line style="stroke:#181818;stroke-width:1.0;" x1="2974" x2="2891.5" y1="1500.2441" y2="1500.2441"/><polygon fill="#181818" points="2901.5,1496.2441,2891.5,1500.2441,2901.5,1504.2441,2897.5,1500.2441" style="stroke:#181818;stroke-width:1.0;"/><line style="stroke:#181818;stroke-width:1.0;" x1="2781.5" x2="2699" y1="1500.2441" y2="1500.2441"/><polygon fill="#181818" points="2695,1544.709,2699,1554.709,2703,1544.709,2699,1548.709" style="stroke:#181818;stroke-width:1.0;"/><line style="stroke:#181818;stroke-width:1.0;" x1="2699" x2="2699" y1="1500.2441" y2="1609.1738"/><line style="stroke:#181818;stroke-width:1.0;" x1="2699" x2="2836.5" y1="1609.1738" y2="1609.1738"/><line style="stroke:#181818;stroke-width:1.0;" x1="2836.5" x2="2836.5" y1="1609.1738" y2="1644.1738"/><polygon fill="#181818" points="2832.5,1634.1738,2836.5,1644.1738,2840.5,1634.1738,2836.5,1638.1738" style="stroke:#181818;stroke-width:1.0;"/><line style="stroke:#181818;stroke-width:1.0;" x1="2836.5" x2="2836.5" y1="1679.2676" y2="1712.2676"/><polygon fill="#181818" points="2832.5,1702.2676,2836.5,1712.2676,2840.5,1702.2676,2836.5,1706.2676" style="stroke:#181818;stroke-width:1.0;"/><line style="stroke:#181818;stroke-width:1.0;" x1="2836.5" x2="2836.5" y1="1747.3613" y2="1767.3613"/><polygon fill="#181818" points="2832.5,1757.3613,2836.5,1767.3613,2840.5,1757.3613,2836.5,1761.3613" style="stroke:#181818;stroke-width:1.0;"/><line style="stroke:#181818;stroke-width:1.0;" x1="2836.5" x2="2836.5" y1="1802.4551" y2="1822.4551"/><polygon fill="#181818" points="2832.5,1812.4551,2836.5,1822.4551,2840.5,1812.4551,2836.5,1816.4551" style="stroke:#181818;stroke-width:1.0;"/><line style="stroke:#181818;stroke-width:1.0;" x1="3295.5" x2="3295.5" y1="1952.6426" y2="1987.6426"/><polygon fill="#181818" points="3291.5,1977.6426,3295.5,1987.6426,3299.5,1977.6426,3295.5,1981.6426" style="stroke:#181818;stroke-width:1.0;"/><line style="stroke:#181818;stroke-width:1.0;" x1="3057.5" x2="3057.5" y1="1899.0488" y2="1946.0488"/><polygon fill="#181818" points="3053.5,1936.0488,3057.5,1946.0488,3061.5,1936.0488,3057.5,1940.0488" style="stroke:#181818;stroke-width:1.0;"/><line style="stroke:#181818;stroke-width:1.0;" x1="3197" x2="3197" y1="1899.0488" y2="1946.0488"/><polygon fill="#181818" points="3193,1936.0488,3197,1946.0488,3201,1936.0488,3197,1940.0488" style="stroke:#181818;stroke-width:1.0;"/><line style="stroke:#181818;stroke-width:1.0;" x1="3295.5" x2="3295.5" y1="1899.0488" y2="1917.5488"/><polygon fill="#181818" points="3291.5,1907.5488,3295.5,1917.5488,3299.5,1907.5488,3295.5,1911.5488" style="stroke:#181818;stroke-width:1.0;"/><line style="stroke:#181818;stroke-width:1.0;" x1="3169" x2="3169" y1="1877.5488" y2="1897.5488"/><polygon fill="#181818" points="3165,1887.5488,3169,1897.5488,3173,1887.5488,3169,1891.5488" style="stroke:#181818;stroke-width:1.0;"/><line style="stroke:#181818;stroke-width:1.0;" x1="185" x2="185" y1="156.6895" y2="160.1895"/><line style="stroke:#181818;stroke-width:1.0;" x1="185" x2="889.75" y1="160.1895" y2="160.1895"/><line style="stroke:#181818;stroke-width:1.0;" x1="889.75" x2="889.75" y1="160.1895" y2="175.1895"/><polygon fill="#181818" points="885.75,165.1895,889.75,175.1895,893.75,165.1895,889.75,169.1895" style="stroke:#181818;stroke-width:1.0;"/><line style="stroke:#181818;stroke-width:1.0;" x1="1122.25" x2="1122.25" y1="294.2832" y2="299.2832"/><line style="stroke:#181818;stroke-width:1.0;" x1="1122.25" x2="1360.75" y1="299.2832" y2="299.2832"/><line style="stroke:#181818;stroke-width:1.0;" x1="1360.75" x2="1360.75" y1="299.2832" y2="314.2832"/><polygon fill="#181818" points="1356.75,304.2832,1360.75,314.2832,1364.75,304.2832,1360.75,308.2832" style="stroke:#181818;stroke-width:1.0;"/><line style="stroke:#181818;stroke-width:1.0;" x1="1360.75" x2="1360.75" y1="634.5645" y2="652.0645"/><line style="stroke:#181818;stroke-width:1.0;" x1="1360.75" x2="1821.25" y1="652.0645" y2="652.0645"/><line style="stroke:#181818;stroke-width:1.0;" x1="1821.25" x2="1821.25" y1="652.0645" y2="669.5645"/><polygon fill="#181818" points="1817.25,659.5645,1821.25,669.5645,1825.25,659.5645,1821.25,663.5645" style="stroke:#181818;stroke-width:1.0;"/><line style="stroke:#181818;stroke-width:1.0;" x1="2590" x2="2590" y1="1468.2441" y2="1473.2441"/><line style="stroke:#181818;stroke-width:1.0;" x1="2590" x2="2836.5" y1="1473.2441" y2="1473.2441"/><line style="stroke:#181818;stroke-width:1.0;" x1="2836.5" x2="2836.5" y1="1473.2441" y2="1488.2441"/><polygon fill="#181818" points="2832.5,1478.2441,2836.5,1488.2441,2840.5,1478.2441,2836.5,1482.2441" style="stroke:#181818;stroke-width:1.0;"/><line style="stroke:#181818;stroke-width:1.0;" x1="2690" x2="2690" y1="1823.9551" y2="1827.4551"/><line style="stroke:#181818;stroke-width:1.0;" x1="2690" x2="3169" y1="1827.4551" y2="1827.4551"/><line style="stroke:#181818;stroke-width:1.0;" x1="3169" x2="3169" y1="1827.4551" y2="1842.4551"/><polygon fill="#181818" points="3165,1832.4551,3169,1842.4551,3173,1832.4551,3169,1836.4551" style="stroke:#181818;stroke-width:1.0;"/><text fill="#000000" font-family="sans-serif" font-size="18" lengthAdjust="spacing" textLength="92" x="144.25" y="31.1406">SignInPage</text><text fill="#000000" font-family="sans-serif" font-size="18" lengthAdjust="spacing" textLength="128" x="724.125" y="31.1406">SignInController</text><text fill="#000000" font-family="sans-serif" font-size="18" lengthAdjust="spacing" textLength="101" x="1309.25" y="31.1406">SignUpPage</text><text fill="#000000" font-family="sans-serif" font-size="18" lengthAdjust="spacing" textLength="137" x="1752.125" y="31.1406">SignUpController</text><text fill="#000000" font-family="sans-serif" font-size="18" lengthAdjust="spacing" textLength="55" x="2376.75" y="31.1406">Sign in</text><text fill="#000000" font-family="sans-serif" font-size="18" lengthAdjust="spacing" textLength="61" x="2804" y="31.1406">Sign up</text><text fill="#000000" font-family="sans-serif" font-size="18" lengthAdjust="spacing" textLength="38" x="3142.5" y="31.1406">User</text><!--SRC=[RLJ1RgCm4BtxAoQtHEeNm25IezKsqghAjarNFNfX02kEZMopLIG-ViSOcoJE3UF7p9lttZ2-YrRjrO6tE3Bhk77Czb8uLlnG3WrywS70pc2DoWakRHckWRTSA5QyQWTls0fBMAoVm58r67hewBWg6QewL6Di38rsMZcZfKGJsua6rhiEgvDGBT31uwP71TgaulHc0wv31MiFeDiDArwugYM6mYLhj3b5yZ_HmM3HA7v6Q8m-mpBdtGWUsdDhlxMfSsYQW1wc1j-Ta0ZhJwBKNA1QbDc0iB3UgtzSYfh8xLMbZS7ANOEcWh743Fo3ij94qsduFV3gzEvuQ_XvWZAKbg1H1KA_OIryLIyHVU6v7ll0DMWSJb7TujXBpMlWq1lT-BwzgDnWy5QlO3PFcjrf5A-ZJWzqAIWat261_WfTiaGcDxpe9jiEWSyXqebCCvupFcgG6ttCZ8wAp4edW0ZkR8DNNsX9qENI0fSqH7q1nq-eLjTclUfD7fj35flO-0eA0ViiT0xBLUnk8lt8xHHYf_jPPPehYJkVIuWA_T9-bv8MmSgBN-i7uPqZUoqBBM5Q3mA9Y5d1GIAdT3fp2PDUwxMBXRBVHGZPDcqslA1tEGmozECjKPxS3HG_l3DtharkFGKUIjDFmgGSttde0dRpAD7vfYpHlCtsw9kFYtdP1jkmmQioUh2K3YMt9Ji9AM_5-HIM3fCpCuD7A6-d7jpiV-Jm7m00]--></g></svg>