<?xml version="1.0" encoding="us-ascii" standalone="no"?><svg xmlns="http://www.w3.org/2000/svg" xmlns:xlink="http://www.w3.org/1999/xlink" contentStyleType="text/css" height="878px" preserveAspectRatio="none" style="width:1884px;height:878px;background:#FFFFFF;" version="1.1" viewBox="0 0 1884 878" width="1884px" zoomAndPan="magnify"><defs/><g><line style="stroke:#181818;stroke-width:0.5;stroke-dasharray:5.0,5.0;" x1="61" x2="61" y1="82.6094" y2="796.3438"/><line style="stroke:#181818;stroke-width:0.5;stroke-dasharray:5.0,5.0;" x1="218" x2="218" y1="82.6094" y2="796.3438"/><line style="stroke:#181818;stroke-width:0.5;stroke-dasharray:5.0,5.0;" x1="464" x2="464" y1="82.6094" y2="796.3438"/><line style="stroke:#181818;stroke-width:0.5;stroke-dasharray:5.0,5.0;" x1="547" x2="547" y1="82.6094" y2="796.3438"/><line style="stroke:#181818;stroke-width:0.5;stroke-dasharray:5.0,5.0;" x1="1006.5" x2="1006.5" y1="82.6094" y2="796.3438"/><line style="stroke:#181818;stroke-width:0.5;stroke-dasharray:5.0,5.0;" x1="1435.5" x2="1435.5" y1="82.6094" y2="796.3438"/><line style="stroke:#181818;stroke-width:0.5;stroke-dasharray:5.0,5.0;" x1="1566.5" x2="1566.5" y1="82.6094" y2="796.3438"/><line style="stroke:#181818;stroke-width:0.5;stroke-dasharray:5.0,5.0;" x1="1694.5" x2="1694.5" y1="82.6094" y2="796.3438"/><line style="stroke:#181818;stroke-width:0.5;stroke-dasharray:5.0,5.0;" x1="1820.5" x2="1820.5" y1="82.6094" y2="796.3438"/><rect fill="#E2E2F0" height="31.6094" rx="2.5" ry="2.5" style="stroke:#181818;stroke-width:0.5;" width="112" x="5" y="50"/><text fill="#000000" font-family="sans-serif" font-size="14" lengthAdjust="spacing" textLength="98" x="12" y="71.5332">IPageController</text><rect fill="#E2E2F0" height="31.6094" rx="2.5" ry="2.5" style="stroke:#181818;stroke-width:0.5;" width="112" x="5" y="795.3438"/><text fill="#000000" font-family="sans-serif" font-size="14" lengthAdjust="spacing" textLength="98" x="12" y="816.877">IPageController</text><rect fill="#E2E2F0" height="31.6094" rx="2.5" ry="2.5" style="stroke:#181818;stroke-width:0.5;" width="82" x="177" y="50"/><text fill="#000000" font-family="sans-serif" font-size="14" lengthAdjust="spacing" textLength="68" x="184" y="71.5332">UIManager</text><rect fill="#E2E2F0" height="31.6094" rx="2.5" ry="2.5" style="stroke:#181818;stroke-width:0.5;" width="82" x="177" y="795.3438"/><text fill="#000000" font-family="sans-serif" font-size="14" lengthAdjust="spacing" textLength="68" x="184" y="816.877">UIManager</text><rect fill="#E2E2F0" height="31.6094" rx="2.5" ry="2.5" style="stroke:#181818;stroke-width:0.5;" width="112" x="408" y="50"/><text fill="#000000" font-family="sans-serif" font-size="14" lengthAdjust="spacing" textLength="98" x="415" y="71.5332">HomeController</text><rect fill="#E2E2F0" height="31.6094" rx="2.5" ry="2.5" style="stroke:#181818;stroke-width:0.5;" width="112" x="408" y="795.3438"/><text fill="#000000" font-family="sans-serif" font-size="14" lengthAdjust="spacing" textLength="98" x="415" y="816.877">HomeController</text><text fill="#000000" font-family="sans-serif" font-size="14" lengthAdjust="spacing" textLength="29" x="530" y="79.5332">User</text><ellipse cx="547.5" cy="13.5" fill="#E2E2F0" rx="8" ry="8" style="stroke:#181818;stroke-width:0.5;"/><path d="M547.5,21.5 L547.5,48.5 M534.5,29.5 L560.5,29.5 M547.5,48.5 L534.5,63.5 M547.5,48.5 L560.5,63.5 " fill="none" style="stroke:#181818;stroke-width:0.5;"/><text fill="#000000" font-family="sans-serif" font-size="14" lengthAdjust="spacing" textLength="29" x="530" y="809.877">User</text><ellipse cx="547.5" cy="821.4531" fill="#E2E2F0" rx="8" ry="8" style="stroke:#181818;stroke-width:0.5;"/><path d="M547.5,829.4531 L547.5,856.4531 M534.5,837.4531 L560.5,837.4531 M547.5,856.4531 L534.5,871.4531 M547.5,856.4531 L560.5,871.4531 " fill="none" style="stroke:#181818;stroke-width:0.5;"/><rect fill="#E2E2F0" height="31.6094" rx="2.5" ry="2.5" style="stroke:#181818;stroke-width:0.5;" width="83" x="965.5" y="50"/><text fill="#000000" font-family="sans-serif" font-size="14" lengthAdjust="spacing" textLength="69" x="972.5" y="71.5332">HomePage</text><rect fill="#E2E2F0" height="31.6094" rx="2.5" ry="2.5" style="stroke:#181818;stroke-width:0.5;" width="83" x="965.5" y="795.3438"/><text fill="#000000" font-family="sans-serif" font-size="14" lengthAdjust="spacing" textLength="69" x="972.5" y="816.877">HomePage</text><rect fill="#E2E2F0" height="31.6094" rx="2.5" ry="2.5" style="stroke:#181818;stroke-width:0.5;" width="125" x="1373.5" y="50"/><text fill="#000000" font-family="sans-serif" font-size="14" lengthAdjust="spacing" textLength="111" x="1380.5" y="71.5332">UIElementFactory</text><rect fill="#E2E2F0" height="31.6094" rx="2.5" ry="2.5" style="stroke:#181818;stroke-width:0.5;" width="125" x="1373.5" y="795.3438"/><text fill="#000000" font-family="sans-serif" font-size="14" lengthAdjust="spacing" textLength="111" x="1380.5" y="816.877">UIElementFactory</text><rect fill="#E2E2F0" height="31.6094" rx="2.5" ry="2.5" style="stroke:#181818;stroke-width:0.5;" width="117" x="1508.5" y="50"/><text fill="#000000" font-family="sans-serif" font-size="14" lengthAdjust="spacing" textLength="103" x="1515.5" y="71.5332">PostDBManager</text><rect fill="#E2E2F0" height="31.6094" rx="2.5" ry="2.5" style="stroke:#181818;stroke-width:0.5;" width="117" x="1508.5" y="795.3438"/><text fill="#000000" font-family="sans-serif" font-size="14" lengthAdjust="spacing" textLength="103" x="1515.5" y="816.877">PostDBManager</text><rect fill="#E2E2F0" height="31.6094" rx="2.5" ry="2.5" style="stroke:#181818;stroke-width:0.5;" width="118" x="1635.5" y="50"/><text fill="#000000" font-family="sans-serif" font-size="14" lengthAdjust="spacing" textLength="104" x="1642.5" y="71.5332">UserDBManager</text><rect fill="#E2E2F0" height="31.6094" rx="2.5" ry="2.5" style="stroke:#181818;stroke-width:0.5;" width="118" x="1635.5" y="795.3438"/><text fill="#000000" font-family="sans-serif" font-size="14" lengthAdjust="spacing" textLength="104" x="1642.5" y="816.877">UserDBManager</text><rect fill="#E2E2F0" height="31.6094" rx="2.5" ry="2.5" style="stroke:#181818;stroke-width:0.5;" width="115" x="1763.5" y="50"/><text fill="#000000" font-family="sans-serif" font-size="14" lengthAdjust="spacing" textLength="101" x="1770.5" y="71.5332">LikeDBManager</text><rect fill="#E2E2F0" height="31.6094" rx="2.5" ry="2.5" style="stroke:#181818;stroke-width:0.5;" width="115" x="1763.5" y="795.3438"/><text fill="#000000" font-family="sans-serif" font-size="14" lengthAdjust="spacing" textLength="101" x="1770.5" y="816.877">LikeDBManager</text><polygon fill="#181818" points="206,110.9609,216,114.9609,206,118.9609,210,114.9609" style="stroke:#181818;stroke-width:1.0;"/><line style="stroke:#181818;stroke-width:1.0;" x1="61" x2="212" y1="114.9609" y2="114.9609"/><text fill="#000000" font-family="sans-serif" font-size="13" lengthAdjust="spacing" textLength="133" x="68" y="110.1045">openHome(userID : int)</text><polygon fill="#181818" points="1555,141.3125,1565,145.3125,1555,149.3125,1559,145.3125" style="stroke:#181818;stroke-width:1.0;"/><line style="stroke:#181818;stroke-width:1.0;" x1="218" x2="1561" y1="145.3125" y2="145.3125"/><text fill="#000000" font-family="sans-serif" font-size="13" lengthAdjust="spacing" textLength="120" x="225" y="140.4561">UserFolloweePosts()</text><polygon fill="#181818" points="1682.5,171.6641,1692.5,175.6641,1682.5,179.6641,1686.5,175.6641" style="stroke:#181818;stroke-width:1.0;"/><line style="stroke:#181818;stroke-width:1.0;" x1="1567" x2="1688.5" y1="175.6641" y2="175.6641"/><text fill="#000000" font-family="sans-serif" font-size="13" lengthAdjust="spacing" textLength="93" x="1574" y="170.8076">UserFollowees()</text><polygon fill="#181818" points="1578,202.0156,1568,206.0156,1578,210.0156,1574,206.0156" style="stroke:#181818;stroke-width:1.0;"/><line style="stroke:#181818;stroke-width:1.0;stroke-dasharray:2.0,2.0;" x1="1572" x2="1693.5" y1="206.0156" y2="206.0156"/><text fill="#000000" font-family="sans-serif" font-size="13" lengthAdjust="spacing" textLength="83" x="1584" y="201.1592">userFollowees</text><polygon fill="#181818" points="229,232.3672,219,236.3672,229,240.3672,225,236.3672" style="stroke:#181818;stroke-width:1.0;"/><line style="stroke:#181818;stroke-width:1.0;stroke-dasharray:2.0,2.0;" x1="223" x2="1566" y1="236.3672" y2="236.3672"/><text fill="#000000" font-family="sans-serif" font-size="13" lengthAdjust="spacing" textLength="80" x="235" y="231.5107">followeePosts</text><polygon fill="#181818" points="452,262.7188,462,266.7188,452,270.7188,456,266.7188" style="stroke:#181818;stroke-width:1.0;"/><line style="stroke:#181818;stroke-width:1.0;" x1="218" x2="458" y1="266.7188" y2="266.7188"/><text fill="#000000" font-family="sans-serif" font-size="13" lengthAdjust="spacing" textLength="222" x="225" y="261.8623">HomeController(userID, followeePosts)</text><polygon fill="#181818" points="229,293.0703,219,297.0703,229,301.0703,225,297.0703" style="stroke:#181818;stroke-width:1.0;"/><line style="stroke:#181818;stroke-width:1.0;" x1="223" x2="463" y1="297.0703" y2="297.0703"/><text fill="#000000" font-family="sans-serif" font-size="13" lengthAdjust="spacing" textLength="107" x="235" y="292.2139">getCurrentUserID()</text><polygon fill="#181818" points="452,323.4219,462,327.4219,452,331.4219,456,327.4219" style="stroke:#181818;stroke-width:1.0;"/><line style="stroke:#181818;stroke-width:1.0;stroke-dasharray:2.0,2.0;" x1="218" x2="458" y1="327.4219" y2="327.4219"/><text fill="#000000" font-family="sans-serif" font-size="13" lengthAdjust="spacing" textLength="79" x="225" y="322.5654">currentUserID</text><polygon fill="#181818" points="995,353.7734,1005,357.7734,995,361.7734,999,357.7734" style="stroke:#181818;stroke-width:1.0;"/><line style="stroke:#181818;stroke-width:1.0;" x1="464" x2="1001" y1="357.7734" y2="357.7734"/><text fill="#000000" font-family="sans-serif" font-size="13" lengthAdjust="spacing" textLength="519" x="471" y="352.917">ProfilePage(userID, handleLikeAction : function, navigateToPage : function, followeePosts)</text><line style="stroke:#181818;stroke-width:1.0;" x1="1007" x2="1049" y1="388.125" y2="388.125"/><line style="stroke:#181818;stroke-width:1.0;" x1="1049" x2="1049" y1="388.125" y2="401.125"/><line style="stroke:#181818;stroke-width:1.0;" x1="1008" x2="1049" y1="401.125" y2="401.125"/><polygon fill="#181818" points="1018,397.125,1008,401.125,1018,405.125,1014,401.125" style="stroke:#181818;stroke-width:1.0;"/><text fill="#000000" font-family="sans-serif" font-size="13" lengthAdjust="spacing" textLength="415" x="1014" y="383.2686">populateContentPanel(posts, handleLikeAction, displayImage : function)</text><polygon fill="#181818" points="1424,427.4766,1434,431.4766,1424,435.4766,1428,431.4766" style="stroke:#181818;stroke-width:1.0;"/><line style="stroke:#181818;stroke-width:1.0;" x1="1007" x2="1430" y1="431.4766" y2="431.4766"/><text fill="#000000" font-family="sans-serif" font-size="13" lengthAdjust="spacing" textLength="139" x="1014" y="426.6201">createHeaderPanel(title)</text><polygon fill="#181818" points="1018,457.8281,1008,461.8281,1018,465.8281,1014,461.8281" style="stroke:#181818;stroke-width:1.0;"/><line style="stroke:#181818;stroke-width:1.0;stroke-dasharray:2.0,2.0;" x1="1012" x2="1435" y1="461.8281" y2="461.8281"/><text fill="#000000" font-family="sans-serif" font-size="13" lengthAdjust="spacing" textLength="72" x="1024" y="456.9717">headerPanel</text><polygon fill="#181818" points="1424,488.1797,1434,492.1797,1424,496.1797,1428,492.1797" style="stroke:#181818;stroke-width:1.0;"/><line style="stroke:#181818;stroke-width:1.0;" x1="1007" x2="1430" y1="492.1797" y2="492.1797"/><text fill="#000000" font-family="sans-serif" font-size="13" lengthAdjust="spacing" textLength="284" x="1014" y="487.3232">createNavigationPanel(navigateToPage : function)</text><polygon fill="#181818" points="1018,518.5313,1008,522.5313,1018,526.5313,1014,522.5313" style="stroke:#181818;stroke-width:1.0;"/><line style="stroke:#181818;stroke-width:1.0;stroke-dasharray:2.0,2.0;" x1="1012" x2="1435" y1="522.5313" y2="522.5313"/><text fill="#000000" font-family="sans-serif" font-size="13" lengthAdjust="spacing" textLength="90" x="1024" y="517.6748">navigationPanel</text><polygon fill="#181818" points="995,548.8828,1005,552.8828,995,556.8828,999,552.8828" style="stroke:#181818;stroke-width:1.0;"/><line style="stroke:#181818;stroke-width:1.0;" x1="547.5" x2="1001" y1="552.8828" y2="552.8828"/><text fill="#000000" font-family="sans-serif" font-size="13" lengthAdjust="spacing" textLength="66" x="554.5" y="548.0264">image click</text><line style="stroke:#181818;stroke-width:1.0;" x1="1007" x2="1049" y1="583.2344" y2="583.2344"/><line style="stroke:#181818;stroke-width:1.0;" x1="1049" x2="1049" y1="583.2344" y2="596.2344"/><line style="stroke:#181818;stroke-width:1.0;" x1="1008" x2="1049" y1="596.2344" y2="596.2344"/><polygon fill="#181818" points="1018,592.2344,1008,596.2344,1018,600.2344,1014,596.2344" style="stroke:#181818;stroke-width:1.0;"/><text fill="#000000" font-family="sans-serif" font-size="13" lengthAdjust="spacing" textLength="176" x="1014" y="578.3779">displayImage(post, imageIcon)</text><polygon fill="#181818" points="995,622.5859,1005,626.5859,995,630.5859,999,626.5859" style="stroke:#181818;stroke-width:1.0;"/><line style="stroke:#181818;stroke-width:1.0;" x1="547.5" x2="1001" y1="626.5859" y2="626.5859"/><text fill="#000000" font-family="sans-serif" font-size="13" lengthAdjust="spacing" textLength="51" x="554.5" y="621.7295">like click</text><polygon fill="#181818" points="1809,652.9375,1819,656.9375,1809,660.9375,1813,656.9375" style="stroke:#181818;stroke-width:1.0;"/><line style="stroke:#181818;stroke-width:1.0;" x1="464" x2="1815" y1="656.9375" y2="656.9375"/><text fill="#000000" font-family="sans-serif" font-size="13" lengthAdjust="spacing" textLength="150" x="471" y="652.0811">createLike(userID, postID)</text><polygon fill="#181818" points="1578,683.2891,1568,687.2891,1578,691.2891,1574,687.2891" style="stroke:#181818;stroke-width:1.0;"/><line style="stroke:#181818;stroke-width:1.0;" x1="1572" x2="1820" y1="687.2891" y2="687.2891"/><text fill="#000000" font-family="sans-serif" font-size="13" lengthAdjust="spacing" textLength="115" x="1584" y="682.4326">updateLikes(postID)</text><polygon fill="#181818" points="995,713.6406,1005,717.6406,995,721.6406,999,717.6406" style="stroke:#181818;stroke-width:1.0;"/><line style="stroke:#181818;stroke-width:1.0;" x1="464" x2="1001" y1="717.6406" y2="717.6406"/><text fill="#000000" font-family="sans-serif" font-size="13" lengthAdjust="spacing" textLength="102" x="471" y="712.7842">updateLikeLabel()</text><polygon fill="#181818" points="995,743.9922,1005,747.9922,995,751.9922,999,747.9922" style="stroke:#181818;stroke-width:1.0;"/><line style="stroke:#181818;stroke-width:1.0;" x1="547.5" x2="1001" y1="747.9922" y2="747.9922"/><text fill="#000000" font-family="sans-serif" font-size="13" lengthAdjust="spacing" textLength="110" x="554.5" y="743.1357">navigation bar click</text><polygon fill="#181818" points="475,774.3438,465,778.3438,475,782.3438,471,778.3438" style="stroke:#181818;stroke-width:1.0;"/><line style="stroke:#181818;stroke-width:1.0;" x1="469" x2="1006" y1="778.3438" y2="778.3438"/><text fill="#000000" font-family="sans-serif" font-size="13" lengthAdjust="spacing" textLength="99" x="481" y="773.4873">navigateToPage()</text><!--SRC=[TL9BReCm4Dtx55w2H2_0eb9B6e54Ao_A0Hnm4YkERHdJAhVl-CF7HDs5lD-y6MjgBE-vfjBYXj0BgvIqHWd13AOZ_5KXlQ5qpIULmF8WV2HWhUuxULqXsbjbS3T6oPF0PNegsGLz27PdqXwzmIFa7HCEKQCzl6y68l2Lka1imkZsZ9RVMC9e7GD1R_powXgMM6actQJP16xD0PUOIviZm1p5PPO-w0YrrIzZRgmnov53lCaJmw6THnU3QGj7wJp0UMiyvzPLkLjudAz8-Jcgvoem-ONPQZ86zjfvSXPxU4F0-os8ehGc9IP6dRdmrrfohbGEWhaDllMMAmdwyoJzpm9B-iClrB9lvI-yXVRpaH027Atq943aIi4OX4ecCkrepsa57lYe1NqqzpGWHz4ItWiqCWmCQqO7PeAVvLOmr_iOUaExwmglMZoBlq8Li0u6_rPBJMKgGzrIa_k9Uy7xsxRzjezlNGHcqtlhXITW1xFQ7yYzsMLQjw7bHCwbEUIeZM-H1EQaXyWSivaotpg1Mtg2mh3HDNsjXK_Kf2sg5O_RoV8_]--></g></svg>