<?xml version="1.0" encoding="us-ascii" standalone="no"?><svg xmlns="http://www.w3.org/2000/svg" xmlns:xlink="http://www.w3.org/1999/xlink" contentStyleType="text/css" height="848px" preserveAspectRatio="none" style="width:2023px;height:848px;background:#FFFFFF;" version="1.1" viewBox="0 0 2023 848" width="2023px" zoomAndPan="magnify"><defs/><g><line style="stroke:#181818;stroke-width:0.5;stroke-dasharray:5.0,5.0;" x1="61" x2="61" y1="82.6094" y2="765.9922"/><line style="stroke:#181818;stroke-width:0.5;stroke-dasharray:5.0,5.0;" x1="220" x2="220" y1="82.6094" y2="765.9922"/><line style="stroke:#181818;stroke-width:0.5;stroke-dasharray:5.0,5.0;" x1="519" x2="519" y1="82.6094" y2="765.9922"/><line style="stroke:#181818;stroke-width:0.5;stroke-dasharray:5.0,5.0;" x1="604" x2="604" y1="82.6094" y2="765.9922"/><line style="stroke:#181818;stroke-width:0.5;stroke-dasharray:5.0,5.0;" x1="1162.5" x2="1162.5" y1="82.6094" y2="765.9922"/><line style="stroke:#181818;stroke-width:0.5;stroke-dasharray:5.0,5.0;" x1="1489.5" x2="1489.5" y1="82.6094" y2="765.9922"/><line style="stroke:#181818;stroke-width:0.5;stroke-dasharray:5.0,5.0;" x1="1620.5" x2="1620.5" y1="82.6094" y2="765.9922"/><line style="stroke:#181818;stroke-width:0.5;stroke-dasharray:5.0,5.0;" x1="1748.5" x2="1748.5" y1="82.6094" y2="765.9922"/><line style="stroke:#181818;stroke-width:0.5;stroke-dasharray:5.0,5.0;" x1="1952" x2="1952" y1="82.6094" y2="765.9922"/><rect fill="#E2E2F0" height="31.6094" rx="2.5" ry="2.5" style="stroke:#181818;stroke-width:0.5;" width="112" x="5" y="50"/><text fill="#000000" font-family="sans-serif" font-size="14" lengthAdjust="spacing" textLength="98" x="12" y="71.5332">IPageController</text><rect fill="#E2E2F0" height="31.6094" rx="2.5" ry="2.5" style="stroke:#181818;stroke-width:0.5;" width="112" x="5" y="764.9922"/><text fill="#000000" font-family="sans-serif" font-size="14" lengthAdjust="spacing" textLength="98" x="12" y="786.5254">IPageController</text><rect fill="#E2E2F0" height="31.6094" rx="2.5" ry="2.5" style="stroke:#181818;stroke-width:0.5;" width="82" x="179" y="50"/><text fill="#000000" font-family="sans-serif" font-size="14" lengthAdjust="spacing" textLength="68" x="186" y="71.5332">UIManager</text><rect fill="#E2E2F0" height="31.6094" rx="2.5" ry="2.5" style="stroke:#181818;stroke-width:0.5;" width="82" x="179" y="764.9922"/><text fill="#000000" font-family="sans-serif" font-size="14" lengthAdjust="spacing" textLength="68" x="186" y="786.5254">UIManager</text><rect fill="#E2E2F0" height="31.6094" rx="2.5" ry="2.5" style="stroke:#181818;stroke-width:0.5;" width="116" x="461" y="50"/><text fill="#000000" font-family="sans-serif" font-size="14" lengthAdjust="spacing" textLength="102" x="468" y="71.5332">ProfileController</text><rect fill="#E2E2F0" height="31.6094" rx="2.5" ry="2.5" style="stroke:#181818;stroke-width:0.5;" width="116" x="461" y="764.9922"/><text fill="#000000" font-family="sans-serif" font-size="14" lengthAdjust="spacing" textLength="102" x="468" y="786.5254">ProfileController</text><text fill="#000000" font-family="sans-serif" font-size="14" lengthAdjust="spacing" textLength="29" x="587" y="79.5332">User</text><ellipse cx="604.5" cy="13.5" fill="#E2E2F0" rx="8" ry="8" style="stroke:#181818;stroke-width:0.5;"/><path d="M604.5,21.5 L604.5,48.5 M591.5,29.5 L617.5,29.5 M604.5,48.5 L591.5,63.5 M604.5,48.5 L617.5,63.5 " fill="none" style="stroke:#181818;stroke-width:0.5;"/><text fill="#000000" font-family="sans-serif" font-size="14" lengthAdjust="spacing" textLength="29" x="587" y="779.5254">User</text><ellipse cx="604.5" cy="791.1016" fill="#E2E2F0" rx="8" ry="8" style="stroke:#181818;stroke-width:0.5;"/><path d="M604.5,799.1016 L604.5,826.1016 M591.5,807.1016 L617.5,807.1016 M604.5,826.1016 L591.5,841.1016 M604.5,826.1016 L617.5,841.1016 " fill="none" style="stroke:#181818;stroke-width:0.5;"/><rect fill="#E2E2F0" height="31.6094" rx="2.5" ry="2.5" style="stroke:#181818;stroke-width:0.5;" width="87" x="1119.5" y="50"/><text fill="#000000" font-family="sans-serif" font-size="14" lengthAdjust="spacing" textLength="73" x="1126.5" y="71.5332">ProfilePage</text><rect fill="#E2E2F0" height="31.6094" rx="2.5" ry="2.5" style="stroke:#181818;stroke-width:0.5;" width="87" x="1119.5" y="764.9922"/><text fill="#000000" font-family="sans-serif" font-size="14" lengthAdjust="spacing" textLength="73" x="1126.5" y="786.5254">ProfilePage</text><rect fill="#E2E2F0" height="31.6094" rx="2.5" ry="2.5" style="stroke:#181818;stroke-width:0.5;" width="125" x="1427.5" y="50"/><text fill="#000000" font-family="sans-serif" font-size="14" lengthAdjust="spacing" textLength="111" x="1434.5" y="71.5332">UIElementFactory</text><rect fill="#E2E2F0" height="31.6094" rx="2.5" ry="2.5" style="stroke:#181818;stroke-width:0.5;" width="125" x="1427.5" y="764.9922"/><text fill="#000000" font-family="sans-serif" font-size="14" lengthAdjust="spacing" textLength="111" x="1434.5" y="786.5254">UIElementFactory</text><rect fill="#E2E2F0" height="31.6094" rx="2.5" ry="2.5" style="stroke:#181818;stroke-width:0.5;" width="117" x="1562.5" y="50"/><text fill="#000000" font-family="sans-serif" font-size="14" lengthAdjust="spacing" textLength="103" x="1569.5" y="71.5332">PostDBManager</text><rect fill="#E2E2F0" height="31.6094" rx="2.5" ry="2.5" style="stroke:#181818;stroke-width:0.5;" width="117" x="1562.5" y="764.9922"/><text fill="#000000" font-family="sans-serif" font-size="14" lengthAdjust="spacing" textLength="103" x="1569.5" y="786.5254">PostDBManager</text><rect fill="#E2E2F0" height="31.6094" rx="2.5" ry="2.5" style="stroke:#181818;stroke-width:0.5;" width="118" x="1689.5" y="50"/><text fill="#000000" font-family="sans-serif" font-size="14" lengthAdjust="spacing" textLength="104" x="1696.5" y="71.5332">UserDBManager</text><rect fill="#E2E2F0" height="31.6094" rx="2.5" ry="2.5" style="stroke:#181818;stroke-width:0.5;" width="118" x="1689.5" y="764.9922"/><text fill="#000000" font-family="sans-serif" font-size="14" lengthAdjust="spacing" textLength="104" x="1696.5" y="786.5254">UserDBManager</text><rect fill="#E2E2F0" height="31.6094" rx="2.5" ry="2.5" style="stroke:#181818;stroke-width:0.5;" width="129" x="1888" y="50"/><text fill="#000000" font-family="sans-serif" font-size="14" lengthAdjust="spacing" textLength="115" x="1895" y="71.5332">FollowDBManager</text><rect fill="#E2E2F0" height="31.6094" rx="2.5" ry="2.5" style="stroke:#181818;stroke-width:0.5;" width="129" x="1888" y="764.9922"/><text fill="#000000" font-family="sans-serif" font-size="14" lengthAdjust="spacing" textLength="115" x="1895" y="786.5254">FollowDBManager</text><polygon fill="#181818" points="208,110.9609,218,114.9609,208,118.9609,212,114.9609" style="stroke:#181818;stroke-width:1.0;"/><line style="stroke:#181818;stroke-width:1.0;" x1="61" x2="214" y1="114.9609" y2="114.9609"/><text fill="#000000" font-family="sans-serif" font-size="13" lengthAdjust="spacing" textLength="135" x="68" y="110.1045">openProfile(userID : int)</text><polygon fill="#181818" points="1940.5,141.3125,1950.5,145.3125,1940.5,149.3125,1944.5,145.3125" style="stroke:#181818;stroke-width:1.0;"/><line style="stroke:#181818;stroke-width:1.0;" x1="220" x2="1946.5" y1="145.3125" y2="145.3125"/><text fill="#000000" font-family="sans-serif" font-size="13" lengthAdjust="spacing" textLength="214" x="227" y="140.4561">isAFollowingB(currentUserID, userID)</text><polygon fill="#181818" points="231,171.6641,221,175.6641,231,179.6641,227,175.6641" style="stroke:#181818;stroke-width:1.0;"/><line style="stroke:#181818;stroke-width:1.0;stroke-dasharray:2.0,2.0;" x1="225" x2="1951.5" y1="175.6641" y2="175.6641"/><text fill="#000000" font-family="sans-serif" font-size="13" lengthAdjust="spacing" textLength="64" x="237" y="170.8076">isFollowing</text><polygon fill="#181818" points="1736.5,202.0156,1746.5,206.0156,1736.5,210.0156,1740.5,206.0156" style="stroke:#181818;stroke-width:1.0;"/><line style="stroke:#181818;stroke-width:1.0;" x1="220" x2="1742.5" y1="206.0156" y2="206.0156"/><text fill="#000000" font-family="sans-serif" font-size="13" lengthAdjust="spacing" textLength="124" x="227" y="201.1592">getUserPosts(userID)</text><polygon fill="#181818" points="231,232.3672,221,236.3672,231,240.3672,227,236.3672" style="stroke:#181818;stroke-width:1.0;"/><line style="stroke:#181818;stroke-width:1.0;stroke-dasharray:2.0,2.0;" x1="225" x2="1747.5" y1="236.3672" y2="236.3672"/><text fill="#000000" font-family="sans-serif" font-size="13" lengthAdjust="spacing" textLength="59" x="237" y="231.5107">userPosts</text><polygon fill="#181818" points="507,262.7188,517,266.7188,507,270.7188,511,266.7188" style="stroke:#181818;stroke-width:1.0;"/><line style="stroke:#181818;stroke-width:1.0;" x1="220" x2="513" y1="266.7188" y2="266.7188"/><text fill="#000000" font-family="sans-serif" font-size="13" lengthAdjust="spacing" textLength="275" x="227" y="261.8623">ProfileController(userID, isFollowing, userPosts)</text><polygon fill="#181818" points="1151,293.0703,1161,297.0703,1151,301.0703,1155,297.0703" style="stroke:#181818;stroke-width:1.0;"/><line style="stroke:#181818;stroke-width:1.0;" x1="519" x2="1157" y1="297.0703" y2="297.0703"/><text fill="#000000" font-family="sans-serif" font-size="13" lengthAdjust="spacing" textLength="620" x="526" y="292.2139">ProfilePage(userID, isFollowing, userPosts, handleEditOrFollowAction : function, navigateToPage : function)</text><line style="stroke:#181818;stroke-width:1.0;" x1="1163" x2="1205" y1="327.4219" y2="327.4219"/><line style="stroke:#181818;stroke-width:1.0;" x1="1205" x2="1205" y1="327.4219" y2="340.4219"/><line style="stroke:#181818;stroke-width:1.0;" x1="1164" x2="1205" y1="340.4219" y2="340.4219"/><polygon fill="#181818" points="1174,336.4219,1164,340.4219,1174,344.4219,1170,340.4219" style="stroke:#181818;stroke-width:1.0;"/><text fill="#000000" font-family="sans-serif" font-size="13" lengthAdjust="spacing" textLength="121" x="1170" y="322.5654">createProfileHeader()</text><polygon fill="#181818" points="1478,366.7734,1488,370.7734,1478,374.7734,1482,370.7734" style="stroke:#181818;stroke-width:1.0;"/><line style="stroke:#181818;stroke-width:1.0;" x1="1163" x2="1484" y1="370.7734" y2="370.7734"/><text fill="#000000" font-family="sans-serif" font-size="13" lengthAdjust="spacing" textLength="303" x="1170" y="365.917">createImageGrid(userPosts, displayImage : function)</text><polygon fill="#181818" points="1174,397.125,1164,401.125,1174,405.125,1170,401.125" style="stroke:#181818;stroke-width:1.0;"/><line style="stroke:#181818;stroke-width:1.0;stroke-dasharray:2.0,2.0;" x1="1168" x2="1489" y1="401.125" y2="401.125"/><text fill="#000000" font-family="sans-serif" font-size="13" lengthAdjust="spacing" textLength="59" x="1180" y="396.2686">imageGrid</text><polygon fill="#181818" points="1478,427.4766,1488,431.4766,1478,435.4766,1482,431.4766" style="stroke:#181818;stroke-width:1.0;"/><line style="stroke:#181818;stroke-width:1.0;" x1="1163" x2="1484" y1="431.4766" y2="431.4766"/><text fill="#000000" font-family="sans-serif" font-size="13" lengthAdjust="spacing" textLength="284" x="1170" y="426.6201">createNavigationPanel(navigateToPage : function)</text><polygon fill="#181818" points="1151,457.8281,1161,461.8281,1151,465.8281,1155,461.8281" style="stroke:#181818;stroke-width:1.0;"/><line style="stroke:#181818;stroke-width:1.0;" x1="604.5" x2="1157" y1="461.8281" y2="461.8281"/><text fill="#000000" font-family="sans-serif" font-size="13" lengthAdjust="spacing" textLength="66" x="611.5" y="456.9717">image click</text><line style="stroke:#181818;stroke-width:1.0;" x1="1163" x2="1205" y1="492.1797" y2="492.1797"/><line style="stroke:#181818;stroke-width:1.0;" x1="1205" x2="1205" y1="492.1797" y2="505.1797"/><line style="stroke:#181818;stroke-width:1.0;" x1="1164" x2="1205" y1="505.1797" y2="505.1797"/><polygon fill="#181818" points="1174,501.1797,1164,505.1797,1174,509.1797,1170,505.1797" style="stroke:#181818;stroke-width:1.0;"/><text fill="#000000" font-family="sans-serif" font-size="13" lengthAdjust="spacing" textLength="176" x="1170" y="487.3232">displayImage(post, imageIcon)</text><polygon fill="#181818" points="1151,531.5313,1161,535.5313,1151,539.5313,1155,535.5313" style="stroke:#181818;stroke-width:1.0;"/><line style="stroke:#181818;stroke-width:1.0;" x1="604.5" x2="1157" y1="535.5313" y2="535.5313"/><text fill="#000000" font-family="sans-serif" font-size="13" lengthAdjust="spacing" textLength="101" x="611.5" y="530.6748">followButton click</text><polygon fill="#181818" points="530,561.8828,520,565.8828,530,569.8828,526,565.8828" style="stroke:#181818;stroke-width:1.0;"/><line style="stroke:#181818;stroke-width:1.0;" x1="524" x2="1162" y1="565.8828" y2="565.8828"/><text fill="#000000" font-family="sans-serif" font-size="13" lengthAdjust="spacing" textLength="157" x="536" y="561.0264">handleEditOrFollowAction()</text><polygon fill="#181818" points="1940.5,592.2344,1950.5,596.2344,1940.5,600.2344,1944.5,596.2344" style="stroke:#181818;stroke-width:1.0;"/><line style="stroke:#181818;stroke-width:1.0;" x1="519" x2="1946.5" y1="596.2344" y2="596.2344"/><text fill="#000000" font-family="sans-serif" font-size="13" lengthAdjust="spacing" textLength="118" x="526" y="591.3779">createFollow(userID)</text><polygon fill="#181818" points="1759.5,622.5859,1749.5,626.5859,1759.5,630.5859,1755.5,626.5859" style="stroke:#181818;stroke-width:1.0;"/><line style="stroke:#181818;stroke-width:1.0;" x1="1753.5" x2="1951.5" y1="626.5859" y2="626.5859"/><text fill="#000000" font-family="sans-serif" font-size="13" lengthAdjust="spacing" textLength="139" x="1765.5" y="621.7295">updateFollowers(userID)</text><polygon fill="#181818" points="1759.5,652.9375,1749.5,656.9375,1759.5,660.9375,1755.5,656.9375" style="stroke:#181818;stroke-width:1.0;"/><line style="stroke:#181818;stroke-width:1.0;" x1="1753.5" x2="1951.5" y1="656.9375" y2="656.9375"/><text fill="#000000" font-family="sans-serif" font-size="13" lengthAdjust="spacing" textLength="180" x="1765.5" y="652.0811">updateFollowing(currentUserID)</text><polygon fill="#181818" points="1151,683.2891,1161,687.2891,1151,691.2891,1155,687.2891" style="stroke:#181818;stroke-width:1.0;"/><line style="stroke:#181818;stroke-width:1.0;" x1="519" x2="1157" y1="687.2891" y2="687.2891"/><text fill="#000000" font-family="sans-serif" font-size="13" lengthAdjust="spacing" textLength="122" x="526" y="682.4326">updateFollowButton()</text><polygon fill="#181818" points="1151,713.6406,1161,717.6406,1151,721.6406,1155,717.6406" style="stroke:#181818;stroke-width:1.0;"/><line style="stroke:#181818;stroke-width:1.0;" x1="604.5" x2="1157" y1="717.6406" y2="717.6406"/><text fill="#000000" font-family="sans-serif" font-size="13" lengthAdjust="spacing" textLength="110" x="611.5" y="712.7842">navigation bar click</text><polygon fill="#181818" points="530,743.9922,520,747.9922,530,751.9922,526,747.9922" style="stroke:#181818;stroke-width:1.0;"/><line style="stroke:#181818;stroke-width:1.0;" x1="524" x2="1162" y1="747.9922" y2="747.9922"/><text fill="#000000" font-family="sans-serif" font-size="13" lengthAdjust="spacing" textLength="99" x="536" y="743.1357">navigateToPage()</text><!--SRC=[ZPBDSeCW58NtFWLBd34la4Ld4XDR5srPr0UWIYnJ0WvWEtdxNa2CcFxjbFkTSy-zC51jUSi7AYsg2UrPgQJLIWYc4JLmL6R30cdgHog1yaNuIOf4gnCNAmSmeArL6ZLcKdsdSPqzJLRjZeATcRILzxY4hbNge8mzx1Un2FobBj0v8PerKK5SzPambMCoc1zjxjoaMwG69gUuU0JB-e2sY4kRPr1sb9F0YTa5EoxxFMv7hI5_u_a21LsUEHHjeZCtio9wDTwhPrxfHZGuQfj4EyPwL99oUtiJaxXOjYgksZpBmg24R9TNyeUiG6zKTe8TEswVTI1shULAmcPEe_IV1PBqW_VKiXVbh_bQoZD2OjTMCq2ctW-CTX0wrk7AKIJgCtZSQzxXHOoEcq7GYwyb_awvcJhmgFp6zIb410sXaWdyI-Gc94QJ8Me5Rz_dGU1u6GOF4B08PDscyfFVrtwq5lQLk9HG_McpRYbbV6rp_a3Wz7c5LmJCE7GpmxJv3mONdRxTV7uXAp8C0B4MeybvdUYLwjlXqlNY_0i0]--></g></svg>