<?xml version="1.0" encoding="us-ascii" standalone="no"?><svg xmlns="http://www.w3.org/2000/svg" xmlns:xlink="http://www.w3.org/1999/xlink" contentStyleType="text/css" height="662px" preserveAspectRatio="none" style="width:595px;height:662px;background:#FFFFFF;" version="1.1" viewBox="0 0 595 662" width="595px" zoomAndPan="magnify"><defs/><g><!--cluster Quackstagram--><g id="cluster_Quackstagram"><rect fill="none" height="649" rx="2.5" ry="2.5" style="stroke:#181818;stroke-width:1.0;" width="507" x="82" y="7"/><text fill="#000000" font-family="sans-serif" font-size="14" font-weight="bold" lengthAdjust="spacing" textLength="100" x="285.5" y="23.5332">Quackstagram</text></g><g id="elem_SU"><ellipse cx="191.311" cy="58.9535" fill="#F1F1F1" rx="43.311" ry="15.4535" style="stroke:#181818;stroke-width:0.5;"/><text fill="#000000" font-family="sans-serif" font-size="14" lengthAdjust="spacing" textLength="45" x="168.3228" y="62.8329">SignUp</text></g><g id="elem_SI"><ellipse cx="191.5624" cy="124.9517" fill="#F1F1F1" rx="39.0624" ry="15.4517" style="stroke:#181818;stroke-width:0.5;"/><text fill="#000000" font-family="sans-serif" font-size="14" lengthAdjust="spacing" textLength="39" x="172.0624" y="128.6802">SignIn</text></g><g id="elem_RSU"><ellipse cx="487.5039" cy="126.0008" fill="#F1F1F1" rx="70.5039" ry="16.5008" style="stroke:#181818;stroke-width:0.5;"/><text fill="#000000" font-family="sans-serif" font-size="14" lengthAdjust="spacing" textLength="89" x="440.0039" y="130.5174">Reject SignUp</text></g><g id="elem_RSI"><ellipse cx="487.4277" cy="268.0855" fill="#F1F1F1" rx="68.4277" ry="16.0855" style="stroke:#181818;stroke-width:0.5;"/><text fill="#000000" font-family="sans-serif" font-size="14" lengthAdjust="spacing" textLength="83" x="442.9277" y="272.6021">Reject SignIn</text></g><g id="elem_VC"><ellipse cx="487.2698" cy="196.954" fill="#F1F1F1" rx="85.2698" ry="19.454" style="stroke:#181818;stroke-width:0.5;"/><text fill="#000000" font-family="sans-serif" font-size="14" lengthAdjust="spacing" textLength="127" x="423.7698" y="200.6825">Validate Credentials</text></g><g id="elem_CU"><ellipse cx="487.58" cy="59.1227" fill="#F1F1F1" rx="66.08" ry="15.6227" style="stroke:#181818;stroke-width:0.5;"/><text fill="#000000" font-family="sans-serif" font-size="14" lengthAdjust="spacing" textLength="76" x="446.58" y="63.6393">Create User</text></g><g id="elem_VPP"><ellipse cx="191.3193" cy="195.9639" fill="#F1F1F1" rx="87.8193" ry="19.9639" style="stroke:#181818;stroke-width:0.5;"/><text fill="#000000" font-family="sans-serif" font-size="14" lengthAdjust="spacing" textLength="133" x="124.8193" y="199.6924">View Personal Profile</text></g><g id="elem_EPP"><ellipse cx="487.6926" cy="339.0385" fill="#F1F1F1" rx="85.6926" ry="19.5385" style="stroke:#181818;stroke-width:0.5;"/><text fill="#000000" font-family="sans-serif" font-size="14" lengthAdjust="spacing" textLength="128" x="423.6926" y="342.767">Edit Personal Profile</text></g><g id="elem_VOUP"><ellipse cx="191.4382" cy="272.0876" fill="#F1F1F1" rx="93.4382" ry="21.0876" style="stroke:#181818;stroke-width:0.5;"/><text fill="#000000" font-family="sans-serif" font-size="14" lengthAdjust="spacing" textLength="146" x="118.4382" y="275.8162">View Other User Profile</text></g><g id="elem_VPF"><ellipse cx="191.3478" cy="347.8696" fill="#F1F1F1" rx="84.8478" ry="19.3696" style="stroke:#181818;stroke-width:0.5;"/><text fill="#000000" font-family="sans-serif" font-size="14" lengthAdjust="spacing" textLength="126" x="128.3478" y="351.5981">View Personal Feed</text></g><g id="elem_EP"><ellipse cx="191.457" cy="418.7914" fill="#F1F1F1" rx="69.457" ry="16.2914" style="stroke:#181818;stroke-width:0.5;"/><text fill="#000000" font-family="sans-serif" font-size="14" lengthAdjust="spacing" textLength="86" x="145.457" y="423.308">Explore Posts</text></g><g id="elem_VN"><ellipse cx="191.396" cy="488.9792" fill="#F1F1F1" rx="77.896" ry="17.9792" style="stroke:#181818;stroke-width:0.5;"/><text fill="#000000" font-family="sans-serif" font-size="14" lengthAdjust="spacing" textLength="109" x="134.9355" y="493.2466">View Notifications</text></g><g id="elem_VP"><ellipse cx="191.4968" cy="558.0429" fill="#F1F1F1" rx="54.9968" ry="15.5429" style="stroke:#181818;stroke-width:0.5;"/><text fill="#000000" font-family="sans-serif" font-size="14" lengthAdjust="spacing" textLength="61" x="157.9968" y="562.5595">View Post</text></g><g id="elem_CP"><ellipse cx="191.341" cy="624.1182" fill="#F1F1F1" rx="65.341" ry="15.6182" style="stroke:#181818;stroke-width:0.5;"/><text fill="#000000" font-family="sans-serif" font-size="14" lengthAdjust="spacing" textLength="75" x="150.841" y="628.6348">Create Post</text></g><g id="elem_UP"><ellipse cx="487.6119" cy="609.2224" fill="#F1F1F1" rx="69.1119" ry="16.2224" style="stroke:#181818;stroke-width:0.5;"/><text fill="#000000" font-family="sans-serif" font-size="14" lengthAdjust="spacing" textLength="85" x="442.1119" y="613.739">Upload Photo</text></g><g id="elem_LP"><ellipse cx="487.2806" cy="542.0229" fill="#F1F1F1" rx="52.7806" ry="15.5229" style="stroke:#181818;stroke-width:0.5;"/><text fill="#000000" font-family="sans-serif" font-size="14" lengthAdjust="spacing" textLength="58" x="455.2806" y="546.5395">Like Post</text></g><g id="elem_FU"><ellipse cx="487.3631" cy="409.109" fill="#F1F1F1" rx="63.8631" ry="15.609" style="stroke:#181818;stroke-width:0.5;"/><text fill="#000000" font-family="sans-serif" font-size="14" lengthAdjust="spacing" textLength="73" x="447.8631" y="413.6256">Follow User</text></g><!--entity U--><g id="elem_U"><ellipse cx="20.5" cy="317.5" fill="#F1F1F1" rx="8" ry="8" style="stroke:#181818;stroke-width:0.5;"/><path d="M20.5,325.5 L20.5,352.5 M7.5,333.5 L33.5,333.5 M20.5,352.5 L7.5,367.5 M20.5,352.5 L33.5,367.5 " fill="none" style="stroke:#181818;stroke-width:0.5;"/><text fill="#000000" font-family="sans-serif" font-size="14" lengthAdjust="spacing" textLength="29" x="6" y="383.5332">User</text></g><!--link U to SU--><g id="link_U_SU"><path d="M24.62,308.75 C30.46,245.03 45.17,123.04 74,92 C92.81,71.75 123.04,63.59 147.99,60.45 " fill="none" id="U-SU" style="stroke:#181818;stroke-width:1.0;"/></g><!--reverse link SU to RSU--><g id="link_SU_RSU"><path d="M234.4,68.5532 C286.53,80.4332 377.33,101.12 436.38,114.58 " fill="none" id="SU-backto-RSU" style="stroke:#181818;stroke-width:1.0;stroke-dasharray:7.0,7.0;"/><polygon fill="#181818" points="228.55,67.22,236.4362,73.1198,233.425,68.331,238.2138,65.3197,228.55,67.22" style="stroke:#181818;stroke-width:1.0;"/><text fill="#000000" font-family="sans-serif" font-size="13" lengthAdjust="spacing" textLength="53" x="317" y="85.4951">&#171;extend&#187;</text></g><!--reverse link SU to CU--><g id="link_SU_CU"><path d="M241.25,59 C290.14,59 364.73,59 421.43,59 " fill="none" id="SU-backto-CU" style="stroke:#181818;stroke-width:1.0;stroke-dasharray:7.0,7.0;"/><polygon fill="#181818" points="235.25,59,244.25,63,240.25,59,244.25,55,235.25,59" style="stroke:#181818;stroke-width:1.0;"/><text fill="#000000" font-family="sans-serif" font-size="13" lengthAdjust="spacing" textLength="53" x="317" y="55.4951">&#171;extend&#187;</text></g><!--link U to SI--><g id="link_U_SI"><path d="M21.58,308.62 C23.83,265.82 34.08,198.18 74,158 C94.59,137.27 127.17,129.32 152.65,126.39 " fill="none" id="U-SI" style="stroke:#181818;stroke-width:1.0;"/></g><!--reverse link SI to VC--><g id="link_SI_VC"><path d="M230.9177,134.4075 C279.9477,146.4175 367.62,167.89 428.48,182.79 " fill="none" id="SI-backto-VC" style="stroke:#181818;stroke-width:1.0;stroke-dasharray:7.0,7.0;"/><polygon fill="#181818" points="225.09,132.98,232.8799,139.0064,229.9464,134.1696,234.7832,131.2361,225.09,132.98" style="stroke:#181818;stroke-width:1.0;"/><text fill="#000000" font-family="sans-serif" font-size="13" lengthAdjust="spacing" textLength="55" x="316" y="153.4951">&#171;include&#187;</text></g><!--reverse link SI to RSI--><g id="link_SI_RSI"><path d="M231.99,133.9799 C250.48,139.1299 267.38,145.7 285,158 C302.08,169.92 298.46,181.34 315,194 C348.79,219.87 362.91,217.16 402,234 C418.12,240.94 436.15,248.26 451.4,254.32 " fill="none" id="SI-backto-RSI" style="stroke:#181818;stroke-width:1.0;stroke-dasharray:7.0,7.0;"/><polygon fill="#181818" points="226.21,132.37,233.8067,138.6382,231.0267,133.7116,235.9532,130.9315,226.21,132.37" style="stroke:#181818;stroke-width:1.0;"/><text fill="#000000" font-family="sans-serif" font-size="13" lengthAdjust="spacing" textLength="53" x="317" y="190.4951">&#171;extend&#187;</text></g><!--link U to VPP--><g id="link_U_VPP"><path d="M30.57,308.93 C38.24,284.01 51.66,252.79 74,233 C87.1,221.39 103.86,213.42 120.56,207.95 " fill="none" id="U-VPP" style="stroke:#181818;stroke-width:1.0;"/></g><!--reverse link VPP to EPP--><g id="link_VPP_EPP"><path d="M244.2921,215.15 C259.2621,221.05 270.23,225.8 285,233 C312.03,246.17 375.25,287.26 402,301 C416.16,308.28 432.01,315.61 446.12,321.86 " fill="none" id="VPP-backto-EPP" style="stroke:#181818;stroke-width:1.0;stroke-dasharray:7.0,7.0;"/><polygon fill="#181818" points="238.71,212.95,245.6165,219.9714,243.3618,214.7834,248.5498,212.5286,238.71,212.95" style="stroke:#181818;stroke-width:1.0;"/><text fill="#000000" font-family="sans-serif" font-size="13" lengthAdjust="spacing" textLength="53" x="317" y="247.4951">&#171;extend&#187;</text></g><!--link U to VPF--><g id="link_U_VPF"><path d="M35.04,348 C50.94,348 78.67,348 106.35,348 " fill="none" id="U-VPF" style="stroke:#181818;stroke-width:1.0;"/></g><!--link U to EP--><g id="link_U_EP"><path d="M35.41,359.73 C45.55,367.79 59.94,378.22 74,385 C94.6,394.92 118.66,402.54 139.55,408.03 " fill="none" id="U-EP" style="stroke:#181818;stroke-width:1.0;"/></g><!--link U to VOUP--><g id="link_U_VOUP"><path d="M35.06,336.78 C45.26,328.75 59.87,318.15 74,311 C91.98,301.9 112.57,294.2 131.38,288.11 " fill="none" id="U-VOUP" style="stroke:#181818;stroke-width:1.0;"/></g><!--link U to VN--><g id="link_U_VN"><path d="M32.54,387.07 C40.67,409.26 53.87,435.93 74,453 C88.77,465.53 107.87,473.7 126.31,479.03 " fill="none" id="U-VN" style="stroke:#181818;stroke-width:1.0;"/></g><!--reverse link VOUP to FU--><g id="link_VOUP_FU"><path d="M256.6954,290.8758 C269.0354,296.4658 275.66,301.36 285,311 C310.84,337.68 285.65,366.23 315,389 C347.45,414.17 394.28,418.13 430.81,416.37 " fill="none" id="VOUP-backto-FU" style="stroke:#181818;stroke-width:1.0;stroke-dasharray:7.0,7.0;"/><polygon fill="#181818" points="251.23,288.4,257.7775,295.7573,255.7845,290.4632,261.0786,288.4701,251.23,288.4" style="stroke:#181818;stroke-width:1.0;"/><text fill="#000000" font-family="sans-serif" font-size="13" lengthAdjust="spacing" textLength="53" x="317" y="385.4951">&#171;extend&#187;</text></g><!--link U to VP--><g id="link_U_VP"><path d="M22.72,387.03 C26.07,426.78 37.37,487.58 74,524 C91.03,540.93 116,549.53 138.45,553.85 " fill="none" id="U-VP" style="stroke:#181818;stroke-width:1.0;"/></g><!--reverse link VP to LP--><g id="link_VP_LP"><path d="M251.7312,554.7747 C305.5112,551.8547 382.03,547.69 435.13,544.8 " fill="none" id="VP-backto-LP" style="stroke:#181818;stroke-width:1.0;stroke-dasharray:7.0,7.0;"/><polygon fill="#181818" points="245.74,555.1,254.9436,558.6062,250.7326,554.8289,254.5099,550.6179,245.74,555.1" style="stroke:#181818;stroke-width:1.0;"/><text fill="#000000" font-family="sans-serif" font-size="13" lengthAdjust="spacing" textLength="53" x="317" y="545.4951">&#171;extend&#187;</text></g><!--link U to CP--><g id="link_U_CP"><path d="M25.12,387.48 C31.51,448.57 46.75,561.97 74,591 C88.32,606.25 109.1,614.63 129.17,619.18 " fill="none" id="U-CP" style="stroke:#181818;stroke-width:1.0;"/></g><!--reverse link CP to UP--><g id="link_CP_UP"><path d="M261.9223,620.4552 C310.2823,617.9952 370.73,614.91 419.86,612.4 " fill="none" id="CP-backto-UP" style="stroke:#181818;stroke-width:1.0;stroke-dasharray:7.0,7.0;"/><polygon fill="#181818" points="255.93,620.76,265.1216,624.2976,260.9235,620.506,264.7152,616.3079,255.93,620.76" style="stroke:#181818;stroke-width:1.0;"/><text fill="#000000" font-family="sans-serif" font-size="13" lengthAdjust="spacing" textLength="53" x="317" y="612.4951">&#171;extend&#187;</text></g><!--SRC=[TP71Zi8W48RlFCKSjmTzW8tnGcpIn6XNWtTInihAWg4OJJRxxZi8rUfsUsZWd-__1nY3-m31WTVj8O3I7fkWdMLCDi5v41rwa1q8nc95sjOWV9nbS-o2RBtyWcy6zBrjTMl5gOZiLZoaoYQfIj86Foa51l2cfmUbRDhqhfqqMic0m3qgj45Bqzs87Ky0wR4S3tlJEHqtEJLUe4RVEIiDrDxjjS5ahUk4B9GEuyY2a47CEXmmFyXJq5gafB6E9QBAxShSxdeopYFKhWjTRZDmhbpGUzt8E8DynzMVTBBcqAVhttMUTK6jf8Bwu8Ax5KH_eQK-3lXbvajdZBiydh4Kx8Sn0PC93LCKR2jWDftIg6W3xp2RuJMWLVFvlS9V2zbSaRbAo8udHDl6d1L6SzN7LgDk6bN1w9Secie_L5davQBkLt4uz_MAKcYVOahnJqfibP3bU2DE2C-8U4L-0G00]--></g></svg>